<mxfile host="app.diagrams.net" modified="2024-03-12T22:41:19.197Z" agent="Mozilla/5.0 (Macintosh; Intel Mac OS X 10_15_7) AppleWebKit/537.36 (KHTML, like Gecko) Chrome/122.0.0.0 Safari/537.36" etag="oF4Ccht5amutGXFfVei_" version="24.0.4" type="github" pages="3">
  <diagram name="v1" id="fiNEXvZs4d-5PXdnUEWF">
    <mxGraphModel dx="2074" dy="795" grid="1" gridSize="10" guides="1" tooltips="1" connect="1" arrows="1" fold="1" page="1" pageScale="1" pageWidth="827" pageHeight="1169" math="0" shadow="0">
      <root>
        <mxCell id="0" />
        <mxCell id="1" parent="0" />
        <mxCell id="BOJUNeeDzk1GS3KY71nu-2" value="&lt;h1 style=&quot;margin-top: 0px;&quot;&gt;Spotify Design System Requirements&lt;/h1&gt;&lt;p&gt;Spotify is a large app. It can include:&lt;br&gt;&lt;/p&gt;&lt;ul style=&quot;list-style-type: &amp;quot;—&amp;nbsp;&amp;nbsp;&amp;quot;; font-size: medium;&quot; class=&quot;ul1&quot;&gt;&lt;li style=&quot;margin: 0px; font-variant-numeric: normal; font-variant-east-asian: normal; font-variant-alternates: normal; font-kerning: auto; font-optical-sizing: auto; font-feature-settings: normal; font-variation-settings: normal; font-variant-position: normal; font-stretch: normal; font-size: 13px; line-height: normal; font-family: &amp;quot;Helvetica Neue&amp;quot;;&quot; class=&quot;li1&quot;&gt;&lt;span style=&quot;font-variant-numeric: normal; font-variant-east-asian: normal; font-variant-alternates: normal; font-kerning: auto; font-optical-sizing: auto; font-feature-settings: normal; font-variation-settings: normal; font-variant-position: normal; font-stretch: normal; font-size: 12px; line-height: normal;&quot; class=&quot;s1&quot;&gt;&lt;/span&gt;Songs&lt;span class=&quot;Apple-converted-space&quot;&gt;&amp;nbsp;&lt;/span&gt;&lt;/li&gt;&lt;li style=&quot;margin: 0px; font-variant-numeric: normal; font-variant-east-asian: normal; font-variant-alternates: normal; font-kerning: auto; font-optical-sizing: auto; font-feature-settings: normal; font-variation-settings: normal; font-variant-position: normal; font-stretch: normal; font-size: 13px; line-height: normal; font-family: &amp;quot;Helvetica Neue&amp;quot;;&quot; class=&quot;li1&quot;&gt;&lt;span style=&quot;font-variant-numeric: normal; font-variant-east-asian: normal; font-variant-alternates: normal; font-kerning: auto; font-optical-sizing: auto; font-feature-settings: normal; font-variation-settings: normal; font-variant-position: normal; font-stretch: normal; font-size: 12px; line-height: normal;&quot; class=&quot;s1&quot;&gt;&lt;/span&gt;Playlists&lt;/li&gt;&lt;li style=&quot;margin: 0px; font-variant-numeric: normal; font-variant-east-asian: normal; font-variant-alternates: normal; font-kerning: auto; font-optical-sizing: auto; font-feature-settings: normal; font-variation-settings: normal; font-variant-position: normal; font-stretch: normal; font-size: 13px; line-height: normal; font-family: &amp;quot;Helvetica Neue&amp;quot;;&quot; class=&quot;li1&quot;&gt;&lt;span style=&quot;font-variant-numeric: normal; font-variant-east-asian: normal; font-variant-alternates: normal; font-kerning: auto; font-optical-sizing: auto; font-feature-settings: normal; font-variation-settings: normal; font-variant-position: normal; font-stretch: normal; font-size: 12px; line-height: normal;&quot; class=&quot;s1&quot;&gt;&lt;/span&gt;Users&lt;/li&gt;&lt;li style=&quot;margin: 0px; font-variant-numeric: normal; font-variant-east-asian: normal; font-variant-alternates: normal; font-kerning: auto; font-optical-sizing: auto; font-feature-settings: normal; font-variation-settings: normal; font-variant-position: normal; font-stretch: normal; font-size: 13px; line-height: normal; font-family: &amp;quot;Helvetica Neue&amp;quot;;&quot; class=&quot;li1&quot;&gt;&lt;span style=&quot;font-variant-numeric: normal; font-variant-east-asian: normal; font-variant-alternates: normal; font-kerning: auto; font-optical-sizing: auto; font-feature-settings: normal; font-variation-settings: normal; font-variant-position: normal; font-stretch: normal; font-size: 12px; line-height: normal;&quot; class=&quot;s1&quot;&gt;&lt;/span&gt;Artists&lt;/li&gt;&lt;li style=&quot;margin: 0px; font-variant-numeric: normal; font-variant-east-asian: normal; font-variant-alternates: normal; font-kerning: auto; font-optical-sizing: auto; font-feature-settings: normal; font-variation-settings: normal; font-variant-position: normal; font-stretch: normal; font-size: 13px; line-height: normal; font-family: &amp;quot;Helvetica Neue&amp;quot;;&quot; class=&quot;li1&quot;&gt;&lt;span style=&quot;font-variant-numeric: normal; font-variant-east-asian: normal; font-variant-alternates: normal; font-kerning: auto; font-optical-sizing: auto; font-feature-settings: normal; font-variation-settings: normal; font-variant-position: normal; font-stretch: normal; font-size: 12px; line-height: normal;&quot; class=&quot;s1&quot;&gt;&lt;/span&gt;Podcasts&lt;br&gt;&lt;/li&gt;&lt;/ul&gt;&lt;div style=&quot;&quot;&gt;&lt;font style=&quot;font-size: 15px;&quot; face=&quot;Helvetica Neue&quot;&gt;&lt;span style=&quot;font-size: 13px;&quot;&gt;What should we focus in?&lt;br&gt;&lt;br&gt;&lt;/span&gt;&lt;/font&gt;&lt;p style=&quot;font-size: 15px; margin: 0px; font-variant-numeric: normal; font-variant-east-asian: normal; font-variant-alternates: normal; font-kerning: auto; font-optical-sizing: auto; font-feature-settings: normal; font-variation-settings: normal; font-variant-position: normal; font-stretch: normal; line-height: normal; font-family: &amp;quot;Helvetica Neue&amp;quot;;&quot; class=&quot;p1&quot;&gt;&lt;b&gt;Use Cases&lt;/b&gt;&lt;/p&gt;&lt;ul style=&quot;font-size: 15px; list-style-type: &amp;quot;—&amp;nbsp;&amp;nbsp;&amp;quot;;&quot; class=&quot;ul1&quot;&gt;&lt;li style=&quot;margin: 0px; font-variant-numeric: normal; font-variant-east-asian: normal; font-variant-alternates: normal; font-kerning: auto; font-optical-sizing: auto; font-feature-settings: normal; font-variation-settings: normal; font-variant-position: normal; font-stretch: normal; line-height: normal; font-family: &amp;quot;Helvetica Neue&amp;quot;;&quot; class=&quot;li1&quot;&gt;&lt;span style=&quot;font-variant-numeric: normal; font-variant-east-asian: normal; font-variant-alternates: normal; font-kerning: auto; font-optical-sizing: auto; font-feature-settings: normal; font-variation-settings: normal; font-variant-position: normal; font-stretch: normal; line-height: normal;&quot; class=&quot;s1&quot;&gt;&lt;/span&gt;Finding music&lt;/li&gt;&lt;li style=&quot;margin: 0px; font-variant-numeric: normal; font-variant-east-asian: normal; font-variant-alternates: normal; font-kerning: auto; font-optical-sizing: auto; font-feature-settings: normal; font-variation-settings: normal; font-variant-position: normal; font-stretch: normal; line-height: normal; font-family: &amp;quot;Helvetica Neue&amp;quot;;&quot; class=&quot;li1&quot;&gt;Playing music&lt;/li&gt;&lt;/ul&gt;&lt;div style=&quot;font-size: 13px;&quot;&gt;&lt;font style=&quot;&quot; face=&quot;Helvetica Neue&quot;&gt;&lt;b style=&quot;&quot;&gt;&lt;font style=&quot;font-size: 16px;&quot;&gt;Questions&lt;/font&gt;&lt;/b&gt;&lt;span style=&quot;font-size: 15px;&quot;&gt;:&lt;/span&gt;&lt;/font&gt;&lt;/div&gt;&lt;ul style=&quot;font-size: medium; list-style-type: &amp;quot;—&amp;nbsp;&amp;nbsp;&amp;quot;;&quot; class=&quot;ul1&quot;&gt;&lt;li style=&quot;margin: 0px; font-variant-numeric: normal; font-variant-east-asian: normal; font-variant-alternates: normal; font-kerning: auto; font-optical-sizing: auto; font-feature-settings: normal; font-variation-settings: normal; font-variant-position: normal; font-stretch: normal; font-size: 13px; line-height: normal; font-family: &amp;quot;Helvetica Neue&amp;quot;;&quot; class=&quot;li2&quot;&gt;Finding under which criteria?&lt;/li&gt;&lt;/ul&gt;&lt;p style=&quot;font-size: 13px; margin: 0px; font-variant-numeric: normal; font-variant-east-asian: normal; font-variant-alternates: normal; font-kerning: auto; font-optical-sizing: auto; font-feature-settings: normal; font-variation-settings: normal; font-variant-position: normal; font-stretch: normal; line-height: normal; font-family: &amp;quot;Helvetica Neue&amp;quot;;&quot; class=&quot;p1&quot;&gt;Let&#39;s say your search for &quot;Charly&quot;, you may find these results:&lt;/p&gt;&lt;ul style=&quot;font-size: medium; list-style-type: &amp;quot;—&amp;nbsp;&amp;nbsp;&amp;quot;;&quot; class=&quot;ul1&quot;&gt;&lt;li style=&quot;margin: 0px; font-variant-numeric: normal; font-variant-east-asian: normal; font-variant-alternates: normal; font-kerning: auto; font-optical-sizing: auto; font-feature-settings: normal; font-variation-settings: normal; font-variant-position: normal; font-stretch: normal; font-size: 13px; line-height: normal; font-family: &amp;quot;Helvetica Neue&amp;quot;;&quot; class=&quot;li1&quot;&gt;&lt;span style=&quot;font-variant-numeric: normal; font-variant-east-asian: normal; font-variant-alternates: normal; font-kerning: auto; font-optical-sizing: auto; font-feature-settings: normal; font-variation-settings: normal; font-variant-position: normal; font-stretch: normal; font-size: 12px; line-height: normal;&quot; class=&quot;s1&quot;&gt;&lt;/span&gt;Charly as an artist&lt;/li&gt;&lt;li style=&quot;margin: 0px; font-variant-numeric: normal; font-variant-east-asian: normal; font-variant-alternates: normal; font-kerning: auto; font-optical-sizing: auto; font-feature-settings: normal; font-variation-settings: normal; font-variant-position: normal; font-stretch: normal; font-size: 13px; line-height: normal; font-family: &amp;quot;Helvetica Neue&amp;quot;;&quot; class=&quot;li1&quot;&gt;&lt;span style=&quot;font-variant-numeric: normal; font-variant-east-asian: normal; font-variant-alternates: normal; font-kerning: auto; font-optical-sizing: auto; font-feature-settings: normal; font-variation-settings: normal; font-variant-position: normal; font-stretch: normal; font-size: 12px; line-height: normal;&quot; class=&quot;s1&quot;&gt;&lt;/span&gt;This is Charly Garcia, a playlist&lt;/li&gt;&lt;li style=&quot;margin: 0px; font-variant-numeric: normal; font-variant-east-asian: normal; font-variant-alternates: normal; font-kerning: auto; font-optical-sizing: auto; font-feature-settings: normal; font-variation-settings: normal; font-variant-position: normal; font-stretch: normal; font-size: 13px; line-height: normal; font-family: &amp;quot;Helvetica Neue&amp;quot;;&quot; class=&quot;li1&quot;&gt;&lt;span style=&quot;font-variant-numeric: normal; font-variant-east-asian: normal; font-variant-alternates: normal; font-kerning: auto; font-optical-sizing: auto; font-feature-settings: normal; font-variation-settings: normal; font-variant-position: normal; font-stretch: normal; font-size: 12px; line-height: normal;&quot; class=&quot;s1&quot;&gt;&lt;/span&gt;Charly Ruth another artist&lt;/li&gt;&lt;li style=&quot;margin: 0px; font-variant-numeric: normal; font-variant-east-asian: normal; font-variant-alternates: normal; font-kerning: auto; font-optical-sizing: auto; font-feature-settings: normal; font-variation-settings: normal; font-variant-position: normal; font-stretch: normal; font-size: 13px; line-height: normal; font-family: &amp;quot;Helvetica Neue&amp;quot;;&quot; class=&quot;li1&quot;&gt;&lt;span style=&quot;font-variant-numeric: normal; font-variant-east-asian: normal; font-variant-alternates: normal; font-kerning: auto; font-optical-sizing: auto; font-feature-settings: normal; font-variation-settings: normal; font-variant-position: normal; font-stretch: normal; font-size: 12px; line-height: normal;&quot; class=&quot;s1&quot;&gt;&lt;/span&gt;Influencia song by Charly&lt;/li&gt;&lt;li style=&quot;margin: 0px; font-variant-numeric: normal; font-variant-east-asian: normal; font-variant-alternates: normal; font-kerning: auto; font-optical-sizing: auto; font-feature-settings: normal; font-variation-settings: normal; font-variant-position: normal; font-stretch: normal; font-size: 13px; line-height: normal; font-family: &amp;quot;Helvetica Neue&amp;quot;;&quot; class=&quot;li1&quot;&gt;&lt;span style=&quot;font-variant-numeric: normal; font-variant-east-asian: normal; font-variant-alternates: normal; font-kerning: auto; font-optical-sizing: auto; font-feature-settings: normal; font-variation-settings: normal; font-variant-position: normal; font-stretch: normal; font-size: 12px; line-height: normal;&quot; class=&quot;s1&quot;&gt;&lt;/span&gt;Influencia (cover de Charly Garcia) from another artist&lt;/li&gt;&lt;/ul&gt;&lt;div style=&quot;font-size: 13px;&quot;&gt;&lt;font face=&quot;Helvetica Neue&quot;&gt;&lt;span style=&quot;font-size: 13px;&quot;&gt;Let&#39;s say we&#39;ll just have songs as results. With an id and another information about the song.&lt;/span&gt;&lt;/font&gt;&lt;/div&gt;&lt;div style=&quot;font-size: 13px;&quot;&gt;&lt;font face=&quot;Helvetica Neue&quot;&gt;&lt;span style=&quot;font-size: 13px;&quot;&gt;&lt;br&gt;&lt;/span&gt;&lt;/font&gt;&lt;/div&gt;&lt;div style=&quot;font-size: 13px;&quot;&gt;&lt;p&gt;Then we&#39;re focusing for this design just in:&lt;br&gt;&lt;/p&gt;&lt;ul style=&quot;list-style-type: &amp;quot;—&amp;nbsp;&amp;nbsp;&amp;quot;; font-size: medium;&quot; class=&quot;ul1&quot;&gt;&lt;li style=&quot;margin: 0px; font-variant-numeric: normal; font-variant-east-asian: normal; font-variant-alternates: normal; font-kerning: auto; font-optical-sizing: auto; font-feature-settings: normal; font-variation-settings: normal; font-variant-position: normal; font-stretch: normal; font-size: 13px; line-height: normal; font-family: &amp;quot;Helvetica Neue&amp;quot;;&quot; class=&quot;li1&quot;&gt;&lt;span style=&quot;font-variant-numeric: normal; font-variant-east-asian: normal; font-variant-alternates: normal; font-kerning: auto; font-optical-sizing: auto; font-feature-settings: normal; font-variation-settings: normal; font-variant-position: normal; font-stretch: normal; font-size: 12px; line-height: normal;&quot; class=&quot;s1&quot;&gt;&lt;/span&gt;Users&lt;span class=&quot;Apple-converted-space&quot;&gt;&amp;nbsp;&lt;/span&gt;&lt;/li&gt;&lt;li style=&quot;margin: 0px; font-variant-numeric: normal; font-variant-east-asian: normal; font-variant-alternates: normal; font-kerning: auto; font-optical-sizing: auto; font-feature-settings: normal; font-variation-settings: normal; font-variant-position: normal; font-stretch: normal; font-size: 13px; line-height: normal; font-family: &amp;quot;Helvetica Neue&amp;quot;;&quot; class=&quot;li1&quot;&gt;&lt;span style=&quot;font-variant-numeric: normal; font-variant-east-asian: normal; font-variant-alternates: normal; font-kerning: auto; font-optical-sizing: auto; font-feature-settings: normal; font-variation-settings: normal; font-variant-position: normal; font-stretch: normal; font-size: 12px; line-height: normal;&quot; class=&quot;s1&quot;&gt;&lt;/span&gt;Songs (metadata information)&lt;/li&gt;&lt;li style=&quot;margin: 0px; font-variant-numeric: normal; font-variant-east-asian: normal; font-variant-alternates: normal; font-kerning: auto; font-optical-sizing: auto; font-feature-settings: normal; font-variation-settings: normal; font-variant-position: normal; font-stretch: normal; font-size: 13px; line-height: normal; font-family: &amp;quot;Helvetica Neue&amp;quot;;&quot; class=&quot;li1&quot;&gt;Files (mp3 files to stream)&lt;/li&gt;&lt;/ul&gt;&lt;div&gt;&lt;div&gt;&lt;font face=&quot;Helvetica Neue&quot;&gt;&lt;b&gt;&lt;font style=&quot;font-size: 16px;&quot;&gt;Metrics&lt;/font&gt;&lt;/b&gt;&lt;span style=&quot;font-size: 15px;&quot;&gt;:&lt;/span&gt;&lt;/font&gt;&lt;/div&gt;&lt;/div&gt;&lt;div&gt;Let&#39;s write down some numbers that we&#39;ll be nice to have to take some decisions later on.&lt;/div&gt;&lt;/div&gt;&lt;div style=&quot;font-size: 13px;&quot;&gt;&lt;br&gt;&lt;/div&gt;&lt;div style=&quot;font-size: 13px;&quot;&gt;&lt;p style=&quot;margin: 1rem 0px; white-space-collapse: preserve; word-break: break-word; color: rgb(31, 31, 31); font-family: &amp;quot;Google Sans&amp;quot;, &amp;quot;Helvetica Neue&amp;quot;, sans-serif;&quot; data-sourcepos=&quot;4:1-4:10&quot;&gt;&lt;span style=&quot;font-weight: 700; background-color: rgb(255, 255, 255);&quot;&gt;Users:&lt;/span&gt;&lt;/p&gt;&lt;ul style=&quot;margin: 4px 0px; padding-inline-start: 1.125rem; color: rgb(31, 31, 31); font-family: &amp;quot;Google Sans&amp;quot;, &amp;quot;Helvetica Neue&amp;quot;, sans-serif;&quot; data-sourcepos=&quot;6:1-7:0&quot;&gt;&lt;li style=&quot;margin-bottom: 0px;&quot; data-sourcepos=&quot;6:1-7:0&quot;&gt;&lt;span style=&quot;background-color: rgb(255, 255, 255);&quot;&gt;Expected number of users to reach with this design:&amp;nbsp;&lt;span style=&quot;font-weight: 700;&quot;&gt;1 billion&lt;/span&gt;&lt;/span&gt;&lt;/li&gt;&lt;/ul&gt;&lt;p style=&quot;margin: 1rem 0px; white-space-collapse: preserve; word-break: break-word; color: rgb(31, 31, 31); font-family: &amp;quot;Google Sans&amp;quot;, &amp;quot;Helvetica Neue&amp;quot;, sans-serif;&quot; data-sourcepos=&quot;8:1-8:10&quot;&gt;&lt;span style=&quot;font-weight: 700; background-color: rgb(255, 255, 255);&quot;&gt;Songs:&lt;/span&gt;&lt;/p&gt;&lt;ul style=&quot;margin: 4px 0px; padding-inline-start: 1.125rem; color: rgb(31, 31, 31); font-family: &amp;quot;Google Sans&amp;quot;, &amp;quot;Helvetica Neue&amp;quot;, sans-serif;&quot; data-sourcepos=&quot;10:1-18:0&quot;&gt;&lt;li style=&quot;margin-bottom: 0px;&quot; data-sourcepos=&quot;10:1-10:34&quot;&gt;&lt;span style=&quot;background-color: rgb(255, 255, 255);&quot;&gt;Number of songs:&amp;nbsp;&lt;span style=&quot;font-weight: 700;&quot;&gt;100 million&lt;/span&gt;&lt;/span&gt;&lt;/li&gt;&lt;li style=&quot;margin-bottom: 0px;&quot; data-sourcepos=&quot;11:1-11:19&quot;&gt;&lt;span style=&quot;background-color: rgb(255, 255, 255);&quot;&gt;Audio format: MP3&lt;/span&gt;&lt;/li&gt;&lt;li style=&quot;margin-bottom: 0px;&quot; data-sourcepos=&quot;12:1-12:29&quot;&gt;&lt;span style=&quot;background-color: rgb(255, 255, 255);&quot;&gt;Average size per song: 5 MB&lt;/span&gt;&lt;/li&gt;&lt;li style=&quot;margin-bottom: 0px;&quot; data-sourcepos=&quot;13:1-18:0&quot;&gt;&lt;span style=&quot;background-color: rgb(255, 255, 255);&quot;&gt;Storage:&lt;/span&gt;&lt;ul style=&quot;margin: 4px 0px; padding-inline-start: 1.125rem;&quot; data-sourcepos=&quot;14:5-18:0&quot;&gt;&lt;li style=&quot;margin-bottom: 0px;&quot; data-sourcepos=&quot;14:5-14:23&quot;&gt;&lt;span style=&quot;background-color: rgb(255, 255, 255);&quot;&gt;200 songs in 1 GB&lt;/span&gt;&lt;/li&gt;&lt;li style=&quot;margin-bottom: 0px;&quot; data-sourcepos=&quot;15:5-15:25&quot;&gt;&lt;span style=&quot;background-color: rgb(255, 255, 255);&quot;&gt;1,000 songs in 5 GB&lt;/span&gt;&lt;/li&gt;&lt;li style=&quot;margin-bottom: 0px;&quot; data-sourcepos=&quot;16:5-16:37&quot;&gt;&lt;span style=&quot;background-color: rgb(255, 255, 255);&quot;&gt;100,000,000 songs in 500,000 GB&lt;/span&gt;&lt;/li&gt;&lt;li style=&quot;margin-bottom: 0px;&quot; data-sourcepos=&quot;17:5-18:0&quot;&gt;&lt;span style=&quot;background-color: rgb(255, 255, 255);&quot;&gt;&lt;span style=&quot;font-weight: 700;&quot;&gt;Total audio:&lt;/span&gt;&amp;nbsp;500 TB (0.5 PB)&lt;/span&gt;&lt;/li&gt;&lt;/ul&gt;&lt;/li&gt;&lt;/ul&gt;&lt;ul style=&quot;margin: 4px 0px; padding-inline-start: 1.125rem; color: rgb(31, 31, 31); font-family: &amp;quot;Google Sans&amp;quot;, &amp;quot;Helvetica Neue&amp;quot;, sans-serif;&quot; data-sourcepos=&quot;21:1-30:0&quot;&gt;&lt;li style=&quot;margin-bottom: 0px;&quot; data-sourcepos=&quot;21:1-21:36&quot;&gt;&lt;span style=&quot;background-color: rgb(255, 255, 255);&quot;&gt;To store 100 million songs: 0.5 PB&lt;/span&gt;&lt;/li&gt;&lt;li style=&quot;margin-bottom: 0px;&quot; data-sourcepos=&quot;22:1-23:29&quot;&gt;&lt;span style=&quot;background-color: rgb(255, 255, 255);&quot;&gt;Replicas: 1 leader and 3 followers (3x)&lt;/span&gt;&lt;ul style=&quot;margin: 4px 0px; padding-inline-start: 1.125rem;&quot; data-sourcepos=&quot;23:5-23:29&quot;&gt;&lt;li style=&quot;margin-bottom: 0px;&quot; data-sourcepos=&quot;23:5-23:29&quot;&gt;&lt;span style=&quot;background-color: rgb(255, 255, 255);&quot;&gt;&lt;span style=&quot;font-weight: 700;&quot;&gt;Total storage:&lt;/span&gt;&amp;nbsp;2 PB&lt;/span&gt;&lt;/li&gt;&lt;/ul&gt;&lt;/li&gt;&lt;/ul&gt;&lt;p style=&quot;margin: 1rem 0px; white-space-collapse: preserve; word-break: break-word; color: rgb(31, 31, 31); font-family: &amp;quot;Google Sans&amp;quot;, &amp;quot;Helvetica Neue&amp;quot;, sans-serif;&quot; data-sourcepos=&quot;31:1-31:12&quot;&gt;&lt;span style=&quot;font-weight: 700; background-color: rgb(255, 255, 255);&quot;&gt;Traffic:&lt;/span&gt;&lt;/p&gt;&lt;ul style=&quot;margin: 4px 0px; padding-inline-start: 1.125rem; color: rgb(31, 31, 31); font-family: &amp;quot;Google Sans&amp;quot;, &amp;quot;Helvetica Neue&amp;quot;, sans-serif;&quot; data-sourcepos=&quot;33:1-37:0&quot;&gt;&lt;li style=&quot;margin-bottom: 0px;&quot; data-sourcepos=&quot;33:1-37:0&quot;&gt;&lt;span style=&quot;font-weight: 700; background-color: rgb(255, 255, 255);&quot;&gt;Number of songs streamed per day or second.&amp;nbsp;&lt;/span&gt;Data needed to determine the scale of the web service.&lt;/li&gt;&lt;/ul&gt;&lt;div&gt;&lt;font face=&quot;Google Sans, Helvetica Neue, sans-serif&quot; color=&quot;#1f1f1f&quot;&gt;&lt;br&gt;&lt;/font&gt;&lt;/div&gt;&lt;/div&gt;&lt;div style=&quot;&quot;&gt;&lt;font style=&quot;&quot; face=&quot;Google Sans, Helvetica Neue, sans-serif&quot; color=&quot;#1f1f1f&quot;&gt;&lt;b style=&quot;&quot;&gt;&lt;font style=&quot;font-size: 14px;&quot;&gt;Insights&lt;/font&gt;&lt;/b&gt;&lt;span style=&quot;font-size: 13px;&quot;&gt;:&lt;/span&gt;&lt;/font&gt;&lt;/div&gt;&lt;div style=&quot;font-size: 13px;&quot;&gt;&lt;font face=&quot;Google Sans, Helvetica Neue, sans-serif&quot; color=&quot;#1f1f1f&quot;&gt;&lt;br&gt;&lt;/font&gt;&lt;/div&gt;&lt;div style=&quot;&quot;&gt;&lt;font face=&quot;Google Sans, Helvetica Neue, sans-serif&quot; color=&quot;#1f1f1f&quot;&gt;&lt;span style=&quot;font-size: 13px;&quot;&gt;&lt;div style=&quot;&quot;&gt;We can use a relational database, such as MySQL or AWS RDS, to handle the high volume of searches. This will allow us to find songs efficiently.&lt;/div&gt;&lt;div style=&quot;&quot;&gt;Once a song is found, we can retrieve its audio file information from AWS S3, which is ideal for storing and directly accessing large audio files.&lt;/div&gt;&lt;div style=&quot;&quot;&gt;Since these files will not be updated or uploaded through the user interface, AWS S3 is a suitable solution.&lt;/div&gt;&lt;/span&gt;&lt;/font&gt;&lt;/div&gt;&lt;/div&gt;" style="text;html=1;whiteSpace=wrap;overflow=hidden;rounded=0;" vertex="1" parent="1">
          <mxGeometry x="50" y="50" width="430" height="1260" as="geometry" />
        </mxCell>
        <mxCell id="BOJUNeeDzk1GS3KY71nu-3" value="" style="verticalLabelPosition=bottom;verticalAlign=top;html=1;shadow=0;dashed=0;strokeWidth=1;shape=mxgraph.android.phone2;strokeColor=#c0c0c0;" vertex="1" parent="1">
          <mxGeometry x="720" y="130" width="200" height="390" as="geometry" />
        </mxCell>
        <mxCell id="BOJUNeeDzk1GS3KY71nu-4" value="" style="verticalLabelPosition=bottom;verticalAlign=top;html=1;shadow=0;dashed=0;strokeWidth=1;shape=mxgraph.android.phone2;strokeColor=#c0c0c0;" vertex="1" parent="1">
          <mxGeometry x="990" y="130" width="200" height="390" as="geometry" />
        </mxCell>
        <mxCell id="BOJUNeeDzk1GS3KY71nu-5" value="search query" style="rounded=0;whiteSpace=wrap;html=1;" vertex="1" parent="1">
          <mxGeometry x="740" y="180" width="160" height="40" as="geometry" />
        </mxCell>
        <mxCell id="BOJUNeeDzk1GS3KY71nu-6" value="results&lt;br&gt;(just songs)" style="rounded=0;whiteSpace=wrap;html=1;" vertex="1" parent="1">
          <mxGeometry x="740" y="240" width="160" height="230" as="geometry" />
        </mxCell>
        <mxCell id="BOJUNeeDzk1GS3KY71nu-7" value="&amp;lt;album&amp;gt;" style="whiteSpace=wrap;html=1;aspect=fixed;" vertex="1" parent="1">
          <mxGeometry x="1050" y="240" width="80" height="80" as="geometry" />
        </mxCell>
        <mxCell id="BOJUNeeDzk1GS3KY71nu-8" value="&amp;lt;title&amp;gt;" style="text;html=1;align=center;verticalAlign=middle;whiteSpace=wrap;rounded=0;" vertex="1" parent="1">
          <mxGeometry x="1060" y="340" width="60" height="30" as="geometry" />
        </mxCell>
        <mxCell id="BOJUNeeDzk1GS3KY71nu-9" value="&amp;lt;artist&amp;gt;" style="text;html=1;align=center;verticalAlign=middle;whiteSpace=wrap;rounded=0;" vertex="1" parent="1">
          <mxGeometry x="1060" y="360" width="60" height="30" as="geometry" />
        </mxCell>
        <mxCell id="BOJUNeeDzk1GS3KY71nu-11" value="" style="rounded=0;whiteSpace=wrap;html=1;" vertex="1" parent="1">
          <mxGeometry x="1010" y="400" width="160" height="10" as="geometry" />
        </mxCell>
        <mxCell id="BOJUNeeDzk1GS3KY71nu-13" value="" style="shape=image;html=1;verticalAlign=top;verticalLabelPosition=bottom;labelBackgroundColor=#ffffff;imageAspect=0;aspect=fixed;image=https://cdn2.iconfinder.com/data/icons/css-vol-2/24/play-button-o-128.png" vertex="1" parent="1">
          <mxGeometry x="1065" y="420" width="50" height="50" as="geometry" />
        </mxCell>
        <mxCell id="BOJUNeeDzk1GS3KY71nu-14" value="&amp;lt;duration&amp;gt;" style="text;html=1;align=center;verticalAlign=middle;whiteSpace=wrap;rounded=0;" vertex="1" parent="1">
          <mxGeometry x="1115" y="410" width="60" height="30" as="geometry" />
        </mxCell>
        <mxCell id="BOJUNeeDzk1GS3KY71nu-16" value="&lt;h1 style=&quot;margin-top: 0px;&quot;&gt;Interface&lt;/h1&gt;" style="text;html=1;whiteSpace=wrap;overflow=hidden;rounded=0;" vertex="1" parent="1">
          <mxGeometry x="640" y="70" width="210" height="50" as="geometry" />
        </mxCell>
        <mxCell id="BOJUNeeDzk1GS3KY71nu-17" value="&lt;h1 style=&quot;margin-top: 0px;&quot;&gt;v1: High level components&lt;/h1&gt;" style="text;html=1;whiteSpace=wrap;overflow=hidden;rounded=0;" vertex="1" parent="1">
          <mxGeometry x="640" y="560" width="340" height="40" as="geometry" />
        </mxCell>
        <mxCell id="BOJUNeeDzk1GS3KY71nu-18" value="" style="verticalLabelPosition=bottom;verticalAlign=top;html=1;shadow=0;dashed=0;strokeWidth=1;shape=mxgraph.android.phone2;strokeColor=#c0c0c0;" vertex="1" parent="1">
          <mxGeometry x="560" y="820" width="50" height="100" as="geometry" />
        </mxCell>
        <mxCell id="BOJUNeeDzk1GS3KY71nu-19" value="" style="shape=image;html=1;verticalAlign=top;verticalLabelPosition=bottom;labelBackgroundColor=#ffffff;imageAspect=0;aspect=fixed;image=https://cdn4.iconfinder.com/data/icons/social-media-and-logos-11/32/Logo_Spotify-128.png" vertex="1" parent="1">
          <mxGeometry x="566" y="851" width="38" height="38" as="geometry" />
        </mxCell>
        <mxCell id="BOJUNeeDzk1GS3KY71nu-36" style="edgeStyle=orthogonalEdgeStyle;rounded=0;orthogonalLoop=1;jettySize=auto;html=1;" edge="1" parent="1" source="BOJUNeeDzk1GS3KY71nu-20">
          <mxGeometry relative="1" as="geometry">
            <mxPoint x="810" y="870" as="targetPoint" />
          </mxGeometry>
        </mxCell>
        <mxCell id="BOJUNeeDzk1GS3KY71nu-20" value="" style="rounded=0;whiteSpace=wrap;html=1;" vertex="1" parent="1">
          <mxGeometry x="685" y="665" width="35" height="410" as="geometry" />
        </mxCell>
        <mxCell id="BOJUNeeDzk1GS3KY71nu-21" value="Load Balancer" style="text;html=1;align=center;verticalAlign=middle;whiteSpace=wrap;rounded=0;" vertex="1" parent="1">
          <mxGeometry x="673" y="1090" width="60" height="30" as="geometry" />
        </mxCell>
        <mxCell id="BOJUNeeDzk1GS3KY71nu-23" style="edgeStyle=orthogonalEdgeStyle;rounded=0;orthogonalLoop=1;jettySize=auto;html=1;entryX=0;entryY=0.5;entryDx=0;entryDy=0;" edge="1" parent="1" source="BOJUNeeDzk1GS3KY71nu-19" target="BOJUNeeDzk1GS3KY71nu-20">
          <mxGeometry relative="1" as="geometry" />
        </mxCell>
        <mxCell id="BOJUNeeDzk1GS3KY71nu-25" value="" style="rounded=1;whiteSpace=wrap;html=1;" vertex="1" parent="1">
          <mxGeometry x="800" y="810" width="70" height="40" as="geometry" />
        </mxCell>
        <mxCell id="BOJUNeeDzk1GS3KY71nu-26" value="" style="rounded=1;whiteSpace=wrap;html=1;" vertex="1" parent="1">
          <mxGeometry x="810" y="820" width="70" height="40" as="geometry" />
        </mxCell>
        <mxCell id="BOJUNeeDzk1GS3KY71nu-27" value="" style="rounded=1;whiteSpace=wrap;html=1;" vertex="1" parent="1">
          <mxGeometry x="820" y="830" width="70" height="40" as="geometry" />
        </mxCell>
        <mxCell id="BOJUNeeDzk1GS3KY71nu-28" value="" style="rounded=1;whiteSpace=wrap;html=1;" vertex="1" parent="1">
          <mxGeometry x="830" y="840" width="70" height="40" as="geometry" />
        </mxCell>
        <mxCell id="BOJUNeeDzk1GS3KY71nu-29" value="" style="rounded=1;whiteSpace=wrap;html=1;" vertex="1" parent="1">
          <mxGeometry x="840" y="850" width="70" height="40" as="geometry" />
        </mxCell>
        <mxCell id="BOJUNeeDzk1GS3KY71nu-30" value="" style="rounded=1;whiteSpace=wrap;html=1;" vertex="1" parent="1">
          <mxGeometry x="850" y="860" width="70" height="40" as="geometry" />
        </mxCell>
        <mxCell id="BOJUNeeDzk1GS3KY71nu-31" value="" style="rounded=1;whiteSpace=wrap;html=1;" vertex="1" parent="1">
          <mxGeometry x="860" y="870" width="70" height="40" as="geometry" />
        </mxCell>
        <mxCell id="BOJUNeeDzk1GS3KY71nu-32" value="" style="rounded=1;whiteSpace=wrap;html=1;" vertex="1" parent="1">
          <mxGeometry x="870" y="880" width="70" height="40" as="geometry" />
        </mxCell>
        <mxCell id="BOJUNeeDzk1GS3KY71nu-33" value="" style="rounded=1;whiteSpace=wrap;html=1;" vertex="1" parent="1">
          <mxGeometry x="880" y="890" width="70" height="40" as="geometry" />
        </mxCell>
        <mxCell id="BOJUNeeDzk1GS3KY71nu-34" value="Web Services" style="text;html=1;align=center;verticalAlign=middle;whiteSpace=wrap;rounded=0;" vertex="1" parent="1">
          <mxGeometry x="815" y="750" width="60" height="30" as="geometry" />
        </mxCell>
        <mxCell id="BOJUNeeDzk1GS3KY71nu-37" value="" style="shape=cylinder3;whiteSpace=wrap;html=1;boundedLbl=1;backgroundOutline=1;size=15;" vertex="1" parent="1">
          <mxGeometry x="1105" y="830" width="80" height="100" as="geometry" />
        </mxCell>
        <mxCell id="BOJUNeeDzk1GS3KY71nu-39" value="" style="endArrow=classic;html=1;rounded=0;" edge="1" parent="1">
          <mxGeometry width="50" height="50" relative="1" as="geometry">
            <mxPoint x="980" y="870" as="sourcePoint" />
            <mxPoint x="1070" y="870" as="targetPoint" />
          </mxGeometry>
        </mxCell>
        <mxCell id="BOJUNeeDzk1GS3KY71nu-40" value="" style="endArrow=classic;html=1;rounded=0;" edge="1" parent="1">
          <mxGeometry width="50" height="50" relative="1" as="geometry">
            <mxPoint x="1070" y="890.5" as="sourcePoint" />
            <mxPoint x="980" y="890" as="targetPoint" />
          </mxGeometry>
        </mxCell>
        <mxCell id="BOJUNeeDzk1GS3KY71nu-41" value="Database" style="text;html=1;align=center;verticalAlign=middle;whiteSpace=wrap;rounded=0;" vertex="1" parent="1">
          <mxGeometry x="1115" y="940" width="60" height="30" as="geometry" />
        </mxCell>
        <mxCell id="yg57oecvsPpjUhYpi-ON-1" value="&lt;h1 style=&quot;margin-top: 0px; font-size: 20px;&quot;&gt;&lt;font color=&quot;#cc0000&quot; style=&quot;font-size: 20px;&quot;&gt;Very coupled!&lt;/font&gt;&lt;/h1&gt;&lt;ul style=&quot;list-style-type: &amp;quot;—&amp;nbsp;&amp;nbsp;&amp;quot;;&quot; class=&quot;ul1&quot;&gt;&lt;li style=&quot;margin: 0px; font-variant-numeric: normal; font-variant-east-asian: normal; font-variant-alternates: normal; font-kerning: auto; font-optical-sizing: auto; font-feature-settings: normal; font-variation-settings: normal; font-variant-position: normal; font-stretch: normal; line-height: normal; font-family: &amp;quot;Helvetica Neue&amp;quot;;&quot; class=&quot;li1&quot;&gt;&lt;font style=&quot;font-size: 14px;&quot;&gt;Users (might need a separeted DB and microservice)&lt;/font&gt;&lt;span style=&quot;font-size: 20px;&quot; class=&quot;Apple-converted-space&quot;&gt;&amp;nbsp;&lt;/span&gt;&lt;/li&gt;&lt;li style=&quot;font-size: 13px; margin: 0px; font-variant-numeric: normal; font-variant-east-asian: normal; font-variant-alternates: normal; font-kerning: auto; font-optical-sizing: auto; font-feature-settings: normal; font-variation-settings: normal; font-variant-position: normal; font-stretch: normal; line-height: normal; font-family: &amp;quot;Helvetica Neue&amp;quot;;&quot; class=&quot;li1&quot;&gt;&lt;span style=&quot;background-color: rgb(255, 255, 0);&quot;&gt;&lt;span style=&quot;font-variant-numeric: normal; font-variant-east-asian: normal; font-variant-alternates: normal; font-kerning: auto; font-optical-sizing: auto; font-feature-settings: normal; font-variation-settings: normal; font-variant-position: normal; font-stretch: normal; font-size: 12px; line-height: normal;&quot; class=&quot;s1&quot;&gt;&lt;/span&gt;Songs (it&#39;ll probably need some kind of cache system as a way to keep the most streamed songs)&lt;/span&gt;&lt;/li&gt;&lt;li style=&quot;font-size: 13px; margin: 0px; font-variant-numeric: normal; font-variant-east-asian: normal; font-variant-alternates: normal; font-kerning: auto; font-optical-sizing: auto; font-feature-settings: normal; font-variation-settings: normal; font-variant-position: normal; font-stretch: normal; line-height: normal; font-family: &amp;quot;Helvetica Neue&amp;quot;;&quot; class=&quot;li1&quot;&gt;&lt;span style=&quot;background-color: rgb(255, 255, 0);&quot;&gt;Audio files: (we need to stored them separatedly in a storage service)&lt;/span&gt;&lt;/li&gt;&lt;/ul&gt;" style="text;html=1;whiteSpace=wrap;overflow=hidden;rounded=0;" vertex="1" parent="1">
          <mxGeometry x="1249" y="830" width="350" height="130" as="geometry" />
        </mxCell>
        <mxCell id="yg57oecvsPpjUhYpi-ON-2" value="" style="shape=curlyBracket;whiteSpace=wrap;html=1;rounded=1;labelPosition=left;verticalLabelPosition=middle;align=right;verticalAlign=middle;" vertex="1" parent="1">
          <mxGeometry x="1220" y="820" width="20" height="120" as="geometry" />
        </mxCell>
      </root>
    </mxGraphModel>
  </diagram>
  <diagram name="v2" id="bCDId_NH9ZWxWBkM5YM1">
    <mxGraphModel dx="2074" dy="795" grid="1" gridSize="10" guides="1" tooltips="1" connect="1" arrows="1" fold="1" page="1" pageScale="1" pageWidth="827" pageHeight="1169" math="0" shadow="0">
      <root>
        <mxCell id="zJhYoEzk1xNZSyCgb80o-0" />
        <mxCell id="zJhYoEzk1xNZSyCgb80o-1" parent="zJhYoEzk1xNZSyCgb80o-0" />
        <mxCell id="zJhYoEzk1xNZSyCgb80o-2" value="&lt;h1 style=&quot;margin-top: 0px;&quot;&gt;Spotify Design System Requirements&lt;/h1&gt;&lt;p&gt;Spotify is a large app. It can include:&lt;br&gt;&lt;/p&gt;&lt;ul style=&quot;list-style-type: &amp;quot;—&amp;nbsp;&amp;nbsp;&amp;quot;; font-size: medium;&quot; class=&quot;ul1&quot;&gt;&lt;li style=&quot;margin: 0px; font-variant-numeric: normal; font-variant-east-asian: normal; font-variant-alternates: normal; font-kerning: auto; font-optical-sizing: auto; font-feature-settings: normal; font-variation-settings: normal; font-variant-position: normal; font-stretch: normal; font-size: 13px; line-height: normal; font-family: &amp;quot;Helvetica Neue&amp;quot;;&quot; class=&quot;li1&quot;&gt;&lt;span style=&quot;font-variant-numeric: normal; font-variant-east-asian: normal; font-variant-alternates: normal; font-kerning: auto; font-optical-sizing: auto; font-feature-settings: normal; font-variation-settings: normal; font-variant-position: normal; font-stretch: normal; font-size: 12px; line-height: normal;&quot; class=&quot;s1&quot;&gt;&lt;/span&gt;Songs&lt;span class=&quot;Apple-converted-space&quot;&gt;&amp;nbsp;&lt;/span&gt;&lt;/li&gt;&lt;li style=&quot;margin: 0px; font-variant-numeric: normal; font-variant-east-asian: normal; font-variant-alternates: normal; font-kerning: auto; font-optical-sizing: auto; font-feature-settings: normal; font-variation-settings: normal; font-variant-position: normal; font-stretch: normal; font-size: 13px; line-height: normal; font-family: &amp;quot;Helvetica Neue&amp;quot;;&quot; class=&quot;li1&quot;&gt;&lt;span style=&quot;font-variant-numeric: normal; font-variant-east-asian: normal; font-variant-alternates: normal; font-kerning: auto; font-optical-sizing: auto; font-feature-settings: normal; font-variation-settings: normal; font-variant-position: normal; font-stretch: normal; font-size: 12px; line-height: normal;&quot; class=&quot;s1&quot;&gt;&lt;/span&gt;Playlists&lt;/li&gt;&lt;li style=&quot;margin: 0px; font-variant-numeric: normal; font-variant-east-asian: normal; font-variant-alternates: normal; font-kerning: auto; font-optical-sizing: auto; font-feature-settings: normal; font-variation-settings: normal; font-variant-position: normal; font-stretch: normal; font-size: 13px; line-height: normal; font-family: &amp;quot;Helvetica Neue&amp;quot;;&quot; class=&quot;li1&quot;&gt;&lt;span style=&quot;font-variant-numeric: normal; font-variant-east-asian: normal; font-variant-alternates: normal; font-kerning: auto; font-optical-sizing: auto; font-feature-settings: normal; font-variation-settings: normal; font-variant-position: normal; font-stretch: normal; font-size: 12px; line-height: normal;&quot; class=&quot;s1&quot;&gt;&lt;/span&gt;Users&lt;/li&gt;&lt;li style=&quot;margin: 0px; font-variant-numeric: normal; font-variant-east-asian: normal; font-variant-alternates: normal; font-kerning: auto; font-optical-sizing: auto; font-feature-settings: normal; font-variation-settings: normal; font-variant-position: normal; font-stretch: normal; font-size: 13px; line-height: normal; font-family: &amp;quot;Helvetica Neue&amp;quot;;&quot; class=&quot;li1&quot;&gt;&lt;span style=&quot;font-variant-numeric: normal; font-variant-east-asian: normal; font-variant-alternates: normal; font-kerning: auto; font-optical-sizing: auto; font-feature-settings: normal; font-variation-settings: normal; font-variant-position: normal; font-stretch: normal; font-size: 12px; line-height: normal;&quot; class=&quot;s1&quot;&gt;&lt;/span&gt;Artists&lt;/li&gt;&lt;li style=&quot;margin: 0px; font-variant-numeric: normal; font-variant-east-asian: normal; font-variant-alternates: normal; font-kerning: auto; font-optical-sizing: auto; font-feature-settings: normal; font-variation-settings: normal; font-variant-position: normal; font-stretch: normal; font-size: 13px; line-height: normal; font-family: &amp;quot;Helvetica Neue&amp;quot;;&quot; class=&quot;li1&quot;&gt;&lt;span style=&quot;font-variant-numeric: normal; font-variant-east-asian: normal; font-variant-alternates: normal; font-kerning: auto; font-optical-sizing: auto; font-feature-settings: normal; font-variation-settings: normal; font-variant-position: normal; font-stretch: normal; font-size: 12px; line-height: normal;&quot; class=&quot;s1&quot;&gt;&lt;/span&gt;Podcasts&lt;br&gt;&lt;/li&gt;&lt;/ul&gt;&lt;div style=&quot;&quot;&gt;&lt;font style=&quot;font-size: 15px;&quot; face=&quot;Helvetica Neue&quot;&gt;&lt;span style=&quot;font-size: 13px;&quot;&gt;What should we focus in?&lt;br&gt;&lt;br&gt;&lt;/span&gt;&lt;/font&gt;&lt;p style=&quot;font-size: 15px; margin: 0px; font-variant-numeric: normal; font-variant-east-asian: normal; font-variant-alternates: normal; font-kerning: auto; font-optical-sizing: auto; font-feature-settings: normal; font-variation-settings: normal; font-variant-position: normal; font-stretch: normal; line-height: normal; font-family: &amp;quot;Helvetica Neue&amp;quot;;&quot; class=&quot;p1&quot;&gt;&lt;b&gt;Use Cases&lt;/b&gt;&lt;/p&gt;&lt;ul style=&quot;font-size: 15px; list-style-type: &amp;quot;—&amp;nbsp;&amp;nbsp;&amp;quot;;&quot; class=&quot;ul1&quot;&gt;&lt;li style=&quot;margin: 0px; font-variant-numeric: normal; font-variant-east-asian: normal; font-variant-alternates: normal; font-kerning: auto; font-optical-sizing: auto; font-feature-settings: normal; font-variation-settings: normal; font-variant-position: normal; font-stretch: normal; line-height: normal; font-family: &amp;quot;Helvetica Neue&amp;quot;;&quot; class=&quot;li1&quot;&gt;&lt;span style=&quot;font-variant-numeric: normal; font-variant-east-asian: normal; font-variant-alternates: normal; font-kerning: auto; font-optical-sizing: auto; font-feature-settings: normal; font-variation-settings: normal; font-variant-position: normal; font-stretch: normal; line-height: normal;&quot; class=&quot;s1&quot;&gt;&lt;/span&gt;Finding music&lt;/li&gt;&lt;li style=&quot;margin: 0px; font-variant-numeric: normal; font-variant-east-asian: normal; font-variant-alternates: normal; font-kerning: auto; font-optical-sizing: auto; font-feature-settings: normal; font-variation-settings: normal; font-variant-position: normal; font-stretch: normal; line-height: normal; font-family: &amp;quot;Helvetica Neue&amp;quot;;&quot; class=&quot;li1&quot;&gt;Playing music&lt;/li&gt;&lt;/ul&gt;&lt;div style=&quot;font-size: 13px;&quot;&gt;&lt;font style=&quot;&quot; face=&quot;Helvetica Neue&quot;&gt;&lt;b style=&quot;&quot;&gt;&lt;font style=&quot;font-size: 16px;&quot;&gt;Questions&lt;/font&gt;&lt;/b&gt;&lt;span style=&quot;font-size: 15px;&quot;&gt;:&lt;/span&gt;&lt;/font&gt;&lt;/div&gt;&lt;ul style=&quot;font-size: medium; list-style-type: &amp;quot;—&amp;nbsp;&amp;nbsp;&amp;quot;;&quot; class=&quot;ul1&quot;&gt;&lt;li style=&quot;margin: 0px; font-variant-numeric: normal; font-variant-east-asian: normal; font-variant-alternates: normal; font-kerning: auto; font-optical-sizing: auto; font-feature-settings: normal; font-variation-settings: normal; font-variant-position: normal; font-stretch: normal; font-size: 13px; line-height: normal; font-family: &amp;quot;Helvetica Neue&amp;quot;;&quot; class=&quot;li2&quot;&gt;Finding under which criteria?&lt;/li&gt;&lt;/ul&gt;&lt;p style=&quot;font-size: 13px; margin: 0px; font-variant-numeric: normal; font-variant-east-asian: normal; font-variant-alternates: normal; font-kerning: auto; font-optical-sizing: auto; font-feature-settings: normal; font-variation-settings: normal; font-variant-position: normal; font-stretch: normal; line-height: normal; font-family: &amp;quot;Helvetica Neue&amp;quot;;&quot; class=&quot;p1&quot;&gt;Let&#39;s say your search for &quot;Charly&quot;, you may find these results:&lt;/p&gt;&lt;ul style=&quot;font-size: medium; list-style-type: &amp;quot;—&amp;nbsp;&amp;nbsp;&amp;quot;;&quot; class=&quot;ul1&quot;&gt;&lt;li style=&quot;margin: 0px; font-variant-numeric: normal; font-variant-east-asian: normal; font-variant-alternates: normal; font-kerning: auto; font-optical-sizing: auto; font-feature-settings: normal; font-variation-settings: normal; font-variant-position: normal; font-stretch: normal; font-size: 13px; line-height: normal; font-family: &amp;quot;Helvetica Neue&amp;quot;;&quot; class=&quot;li1&quot;&gt;&lt;span style=&quot;font-variant-numeric: normal; font-variant-east-asian: normal; font-variant-alternates: normal; font-kerning: auto; font-optical-sizing: auto; font-feature-settings: normal; font-variation-settings: normal; font-variant-position: normal; font-stretch: normal; font-size: 12px; line-height: normal;&quot; class=&quot;s1&quot;&gt;&lt;/span&gt;Charly as an artist&lt;/li&gt;&lt;li style=&quot;margin: 0px; font-variant-numeric: normal; font-variant-east-asian: normal; font-variant-alternates: normal; font-kerning: auto; font-optical-sizing: auto; font-feature-settings: normal; font-variation-settings: normal; font-variant-position: normal; font-stretch: normal; font-size: 13px; line-height: normal; font-family: &amp;quot;Helvetica Neue&amp;quot;;&quot; class=&quot;li1&quot;&gt;&lt;span style=&quot;font-variant-numeric: normal; font-variant-east-asian: normal; font-variant-alternates: normal; font-kerning: auto; font-optical-sizing: auto; font-feature-settings: normal; font-variation-settings: normal; font-variant-position: normal; font-stretch: normal; font-size: 12px; line-height: normal;&quot; class=&quot;s1&quot;&gt;&lt;/span&gt;This is Charly Garcia, a playlist&lt;/li&gt;&lt;li style=&quot;margin: 0px; font-variant-numeric: normal; font-variant-east-asian: normal; font-variant-alternates: normal; font-kerning: auto; font-optical-sizing: auto; font-feature-settings: normal; font-variation-settings: normal; font-variant-position: normal; font-stretch: normal; font-size: 13px; line-height: normal; font-family: &amp;quot;Helvetica Neue&amp;quot;;&quot; class=&quot;li1&quot;&gt;&lt;span style=&quot;font-variant-numeric: normal; font-variant-east-asian: normal; font-variant-alternates: normal; font-kerning: auto; font-optical-sizing: auto; font-feature-settings: normal; font-variation-settings: normal; font-variant-position: normal; font-stretch: normal; font-size: 12px; line-height: normal;&quot; class=&quot;s1&quot;&gt;&lt;/span&gt;Charly Ruth another artist&lt;/li&gt;&lt;li style=&quot;margin: 0px; font-variant-numeric: normal; font-variant-east-asian: normal; font-variant-alternates: normal; font-kerning: auto; font-optical-sizing: auto; font-feature-settings: normal; font-variation-settings: normal; font-variant-position: normal; font-stretch: normal; font-size: 13px; line-height: normal; font-family: &amp;quot;Helvetica Neue&amp;quot;;&quot; class=&quot;li1&quot;&gt;&lt;span style=&quot;font-variant-numeric: normal; font-variant-east-asian: normal; font-variant-alternates: normal; font-kerning: auto; font-optical-sizing: auto; font-feature-settings: normal; font-variation-settings: normal; font-variant-position: normal; font-stretch: normal; font-size: 12px; line-height: normal;&quot; class=&quot;s1&quot;&gt;&lt;/span&gt;Influencia song by Charly&lt;/li&gt;&lt;li style=&quot;margin: 0px; font-variant-numeric: normal; font-variant-east-asian: normal; font-variant-alternates: normal; font-kerning: auto; font-optical-sizing: auto; font-feature-settings: normal; font-variation-settings: normal; font-variant-position: normal; font-stretch: normal; font-size: 13px; line-height: normal; font-family: &amp;quot;Helvetica Neue&amp;quot;;&quot; class=&quot;li1&quot;&gt;&lt;span style=&quot;font-variant-numeric: normal; font-variant-east-asian: normal; font-variant-alternates: normal; font-kerning: auto; font-optical-sizing: auto; font-feature-settings: normal; font-variation-settings: normal; font-variant-position: normal; font-stretch: normal; font-size: 12px; line-height: normal;&quot; class=&quot;s1&quot;&gt;&lt;/span&gt;Influencia (cover de Charly Garcia) from another artist&lt;/li&gt;&lt;/ul&gt;&lt;div style=&quot;font-size: 13px;&quot;&gt;&lt;font face=&quot;Helvetica Neue&quot;&gt;&lt;span style=&quot;font-size: 13px;&quot;&gt;Let&#39;s say we&#39;ll just have songs as results. With an id and another information about the song.&lt;/span&gt;&lt;/font&gt;&lt;/div&gt;&lt;div style=&quot;font-size: 13px;&quot;&gt;&lt;font face=&quot;Helvetica Neue&quot;&gt;&lt;span style=&quot;font-size: 13px;&quot;&gt;&lt;br&gt;&lt;/span&gt;&lt;/font&gt;&lt;/div&gt;&lt;div style=&quot;font-size: 13px;&quot;&gt;&lt;p&gt;Then we&#39;re focusing for this design just in:&lt;br&gt;&lt;/p&gt;&lt;ul style=&quot;list-style-type: &amp;quot;—&amp;nbsp;&amp;nbsp;&amp;quot;; font-size: medium;&quot; class=&quot;ul1&quot;&gt;&lt;li style=&quot;margin: 0px; font-variant-numeric: normal; font-variant-east-asian: normal; font-variant-alternates: normal; font-kerning: auto; font-optical-sizing: auto; font-feature-settings: normal; font-variation-settings: normal; font-variant-position: normal; font-stretch: normal; font-size: 13px; line-height: normal; font-family: &amp;quot;Helvetica Neue&amp;quot;;&quot; class=&quot;li1&quot;&gt;&lt;span style=&quot;font-variant-numeric: normal; font-variant-east-asian: normal; font-variant-alternates: normal; font-kerning: auto; font-optical-sizing: auto; font-feature-settings: normal; font-variation-settings: normal; font-variant-position: normal; font-stretch: normal; font-size: 12px; line-height: normal;&quot; class=&quot;s1&quot;&gt;&lt;/span&gt;Users&lt;span class=&quot;Apple-converted-space&quot;&gt;&amp;nbsp;&lt;/span&gt;&lt;/li&gt;&lt;li style=&quot;margin: 0px; font-variant-numeric: normal; font-variant-east-asian: normal; font-variant-alternates: normal; font-kerning: auto; font-optical-sizing: auto; font-feature-settings: normal; font-variation-settings: normal; font-variant-position: normal; font-stretch: normal; font-size: 13px; line-height: normal; font-family: &amp;quot;Helvetica Neue&amp;quot;;&quot; class=&quot;li1&quot;&gt;&lt;span style=&quot;font-variant-numeric: normal; font-variant-east-asian: normal; font-variant-alternates: normal; font-kerning: auto; font-optical-sizing: auto; font-feature-settings: normal; font-variation-settings: normal; font-variant-position: normal; font-stretch: normal; font-size: 12px; line-height: normal;&quot; class=&quot;s1&quot;&gt;&lt;/span&gt;Songs (metadata information)&lt;/li&gt;&lt;li style=&quot;margin: 0px; font-variant-numeric: normal; font-variant-east-asian: normal; font-variant-alternates: normal; font-kerning: auto; font-optical-sizing: auto; font-feature-settings: normal; font-variation-settings: normal; font-variant-position: normal; font-stretch: normal; font-size: 13px; line-height: normal; font-family: &amp;quot;Helvetica Neue&amp;quot;;&quot; class=&quot;li1&quot;&gt;Files (mp3 files to stream)&lt;/li&gt;&lt;/ul&gt;&lt;div&gt;&lt;div&gt;&lt;font face=&quot;Helvetica Neue&quot;&gt;&lt;b&gt;&lt;font style=&quot;font-size: 16px;&quot;&gt;Metrics&lt;/font&gt;&lt;/b&gt;&lt;span style=&quot;font-size: 15px;&quot;&gt;:&lt;/span&gt;&lt;/font&gt;&lt;/div&gt;&lt;/div&gt;&lt;div&gt;Let&#39;s write down some numbers that we&#39;ll be nice to have to take some decisions later on.&lt;/div&gt;&lt;/div&gt;&lt;div style=&quot;font-size: 13px;&quot;&gt;&lt;br&gt;&lt;/div&gt;&lt;div style=&quot;font-size: 13px;&quot;&gt;&lt;p style=&quot;margin: 1rem 0px; white-space-collapse: preserve; word-break: break-word; color: rgb(31, 31, 31); font-family: &amp;quot;Google Sans&amp;quot;, &amp;quot;Helvetica Neue&amp;quot;, sans-serif;&quot; data-sourcepos=&quot;4:1-4:10&quot;&gt;&lt;span style=&quot;font-weight: 700; background-color: rgb(255, 255, 255);&quot;&gt;Users:&lt;/span&gt;&lt;/p&gt;&lt;ul style=&quot;margin: 4px 0px; padding-inline-start: 1.125rem; color: rgb(31, 31, 31); font-family: &amp;quot;Google Sans&amp;quot;, &amp;quot;Helvetica Neue&amp;quot;, sans-serif;&quot; data-sourcepos=&quot;6:1-7:0&quot;&gt;&lt;li style=&quot;margin-bottom: 0px;&quot; data-sourcepos=&quot;6:1-7:0&quot;&gt;&lt;span style=&quot;background-color: rgb(255, 255, 255);&quot;&gt;Expected number of users to reach with this design:&amp;nbsp;&lt;span style=&quot;font-weight: 700;&quot;&gt;1 billion&lt;/span&gt;&lt;/span&gt;&lt;/li&gt;&lt;/ul&gt;&lt;p style=&quot;margin: 1rem 0px; white-space-collapse: preserve; word-break: break-word; color: rgb(31, 31, 31); font-family: &amp;quot;Google Sans&amp;quot;, &amp;quot;Helvetica Neue&amp;quot;, sans-serif;&quot; data-sourcepos=&quot;8:1-8:10&quot;&gt;&lt;span style=&quot;font-weight: 700; background-color: rgb(255, 255, 255);&quot;&gt;Songs:&lt;/span&gt;&lt;/p&gt;&lt;ul style=&quot;margin: 4px 0px; padding-inline-start: 1.125rem; color: rgb(31, 31, 31); font-family: &amp;quot;Google Sans&amp;quot;, &amp;quot;Helvetica Neue&amp;quot;, sans-serif;&quot; data-sourcepos=&quot;10:1-18:0&quot;&gt;&lt;li style=&quot;margin-bottom: 0px;&quot; data-sourcepos=&quot;10:1-10:34&quot;&gt;&lt;span style=&quot;background-color: rgb(255, 255, 255);&quot;&gt;Number of songs:&amp;nbsp;&lt;span style=&quot;font-weight: 700;&quot;&gt;100 million&lt;/span&gt;&lt;/span&gt;&lt;/li&gt;&lt;li style=&quot;margin-bottom: 0px;&quot; data-sourcepos=&quot;11:1-11:19&quot;&gt;&lt;span style=&quot;background-color: rgb(255, 255, 255);&quot;&gt;Audio format: MP3&lt;/span&gt;&lt;/li&gt;&lt;li style=&quot;margin-bottom: 0px;&quot; data-sourcepos=&quot;12:1-12:29&quot;&gt;&lt;span style=&quot;background-color: rgb(255, 255, 255);&quot;&gt;Average size per song: 5 MB&lt;/span&gt;&lt;/li&gt;&lt;li style=&quot;margin-bottom: 0px;&quot; data-sourcepos=&quot;13:1-18:0&quot;&gt;&lt;span style=&quot;background-color: rgb(255, 255, 255);&quot;&gt;Storage:&lt;/span&gt;&lt;ul style=&quot;margin: 4px 0px; padding-inline-start: 1.125rem;&quot; data-sourcepos=&quot;14:5-18:0&quot;&gt;&lt;li style=&quot;margin-bottom: 0px;&quot; data-sourcepos=&quot;14:5-14:23&quot;&gt;&lt;span style=&quot;background-color: rgb(255, 255, 255);&quot;&gt;200 songs in 1 GB&lt;/span&gt;&lt;/li&gt;&lt;li style=&quot;margin-bottom: 0px;&quot; data-sourcepos=&quot;15:5-15:25&quot;&gt;&lt;span style=&quot;background-color: rgb(255, 255, 255);&quot;&gt;1,000 songs in 5 GB&lt;/span&gt;&lt;/li&gt;&lt;li style=&quot;margin-bottom: 0px;&quot; data-sourcepos=&quot;16:5-16:37&quot;&gt;&lt;span style=&quot;background-color: rgb(255, 255, 255);&quot;&gt;100,000,000 songs in 500,000 GB&lt;/span&gt;&lt;/li&gt;&lt;li style=&quot;margin-bottom: 0px;&quot; data-sourcepos=&quot;17:5-18:0&quot;&gt;&lt;span style=&quot;background-color: rgb(255, 255, 255);&quot;&gt;&lt;span style=&quot;font-weight: 700;&quot;&gt;Total audio:&lt;/span&gt;&amp;nbsp;500 TB (0.5 PB)&lt;/span&gt;&lt;/li&gt;&lt;/ul&gt;&lt;/li&gt;&lt;/ul&gt;&lt;ul style=&quot;margin: 4px 0px; padding-inline-start: 1.125rem; color: rgb(31, 31, 31); font-family: &amp;quot;Google Sans&amp;quot;, &amp;quot;Helvetica Neue&amp;quot;, sans-serif;&quot; data-sourcepos=&quot;21:1-30:0&quot;&gt;&lt;li style=&quot;margin-bottom: 0px;&quot; data-sourcepos=&quot;21:1-21:36&quot;&gt;&lt;span style=&quot;background-color: rgb(255, 255, 255);&quot;&gt;To store 100 million songs: 0.5 PB&lt;/span&gt;&lt;/li&gt;&lt;li style=&quot;margin-bottom: 0px;&quot; data-sourcepos=&quot;22:1-23:29&quot;&gt;&lt;span style=&quot;background-color: rgb(255, 255, 255);&quot;&gt;Replicas: 1 leader and 3 followers (3x)&lt;/span&gt;&lt;ul style=&quot;margin: 4px 0px; padding-inline-start: 1.125rem;&quot; data-sourcepos=&quot;23:5-23:29&quot;&gt;&lt;li style=&quot;margin-bottom: 0px;&quot; data-sourcepos=&quot;23:5-23:29&quot;&gt;&lt;span style=&quot;background-color: rgb(255, 255, 255);&quot;&gt;&lt;span style=&quot;font-weight: 700;&quot;&gt;Total storage:&lt;/span&gt;&amp;nbsp;2 PB&lt;/span&gt;&lt;/li&gt;&lt;/ul&gt;&lt;/li&gt;&lt;/ul&gt;&lt;p style=&quot;margin: 1rem 0px; white-space-collapse: preserve; word-break: break-word; color: rgb(31, 31, 31); font-family: &amp;quot;Google Sans&amp;quot;, &amp;quot;Helvetica Neue&amp;quot;, sans-serif;&quot; data-sourcepos=&quot;31:1-31:12&quot;&gt;&lt;span style=&quot;font-weight: 700; background-color: rgb(255, 255, 255);&quot;&gt;Traffic:&lt;/span&gt;&lt;/p&gt;&lt;ul style=&quot;margin: 4px 0px; padding-inline-start: 1.125rem; color: rgb(31, 31, 31); font-family: &amp;quot;Google Sans&amp;quot;, &amp;quot;Helvetica Neue&amp;quot;, sans-serif;&quot; data-sourcepos=&quot;33:1-37:0&quot;&gt;&lt;li style=&quot;margin-bottom: 0px;&quot; data-sourcepos=&quot;33:1-37:0&quot;&gt;&lt;span style=&quot;font-weight: 700; background-color: rgb(255, 255, 255);&quot;&gt;Number of songs streamed per day or second.&amp;nbsp;&lt;/span&gt;Data needed to determine the scale of the web service.&lt;/li&gt;&lt;/ul&gt;&lt;div&gt;&lt;font face=&quot;Google Sans, Helvetica Neue, sans-serif&quot; color=&quot;#1f1f1f&quot;&gt;&lt;br&gt;&lt;/font&gt;&lt;/div&gt;&lt;/div&gt;&lt;div style=&quot;&quot;&gt;&lt;font style=&quot;&quot; face=&quot;Google Sans, Helvetica Neue, sans-serif&quot; color=&quot;#1f1f1f&quot;&gt;&lt;b style=&quot;&quot;&gt;&lt;font style=&quot;font-size: 14px;&quot;&gt;Insights&lt;/font&gt;&lt;/b&gt;&lt;span style=&quot;font-size: 13px;&quot;&gt;:&lt;/span&gt;&lt;/font&gt;&lt;/div&gt;&lt;div style=&quot;font-size: 13px;&quot;&gt;&lt;font face=&quot;Google Sans, Helvetica Neue, sans-serif&quot; color=&quot;#1f1f1f&quot;&gt;&lt;br&gt;&lt;/font&gt;&lt;/div&gt;&lt;div style=&quot;&quot;&gt;&lt;font face=&quot;Google Sans, Helvetica Neue, sans-serif&quot; color=&quot;#1f1f1f&quot;&gt;&lt;span style=&quot;font-size: 13px;&quot;&gt;&lt;div style=&quot;&quot;&gt;We can use a relational database, such as MySQL or AWS RDS, to handle the high volume of searches. This will allow us to find songs efficiently.&lt;/div&gt;&lt;div style=&quot;&quot;&gt;Once a song is found, we can retrieve its audio file information from AWS S3, which is ideal for storing and directly accessing large audio files.&lt;/div&gt;&lt;div style=&quot;&quot;&gt;Since these files will not be updated or uploaded through the user interface, AWS S3 is a suitable solution.&lt;/div&gt;&lt;/span&gt;&lt;/font&gt;&lt;/div&gt;&lt;/div&gt;" style="text;html=1;whiteSpace=wrap;overflow=hidden;rounded=0;" vertex="1" parent="zJhYoEzk1xNZSyCgb80o-1">
          <mxGeometry x="50" y="50" width="430" height="1260" as="geometry" />
        </mxCell>
        <mxCell id="zJhYoEzk1xNZSyCgb80o-3" value="" style="verticalLabelPosition=bottom;verticalAlign=top;html=1;shadow=0;dashed=0;strokeWidth=1;shape=mxgraph.android.phone2;strokeColor=#c0c0c0;" vertex="1" parent="zJhYoEzk1xNZSyCgb80o-1">
          <mxGeometry x="720" y="130" width="200" height="390" as="geometry" />
        </mxCell>
        <mxCell id="zJhYoEzk1xNZSyCgb80o-4" value="" style="verticalLabelPosition=bottom;verticalAlign=top;html=1;shadow=0;dashed=0;strokeWidth=1;shape=mxgraph.android.phone2;strokeColor=#c0c0c0;" vertex="1" parent="zJhYoEzk1xNZSyCgb80o-1">
          <mxGeometry x="990" y="130" width="200" height="390" as="geometry" />
        </mxCell>
        <mxCell id="zJhYoEzk1xNZSyCgb80o-5" value="search query" style="rounded=0;whiteSpace=wrap;html=1;" vertex="1" parent="zJhYoEzk1xNZSyCgb80o-1">
          <mxGeometry x="740" y="180" width="160" height="40" as="geometry" />
        </mxCell>
        <mxCell id="zJhYoEzk1xNZSyCgb80o-6" value="results&lt;br&gt;(just songs)" style="rounded=0;whiteSpace=wrap;html=1;" vertex="1" parent="zJhYoEzk1xNZSyCgb80o-1">
          <mxGeometry x="740" y="240" width="160" height="230" as="geometry" />
        </mxCell>
        <mxCell id="zJhYoEzk1xNZSyCgb80o-7" value="&amp;lt;album&amp;gt;" style="whiteSpace=wrap;html=1;aspect=fixed;" vertex="1" parent="zJhYoEzk1xNZSyCgb80o-1">
          <mxGeometry x="1050" y="240" width="80" height="80" as="geometry" />
        </mxCell>
        <mxCell id="zJhYoEzk1xNZSyCgb80o-8" value="&amp;lt;title&amp;gt;" style="text;html=1;align=center;verticalAlign=middle;whiteSpace=wrap;rounded=0;" vertex="1" parent="zJhYoEzk1xNZSyCgb80o-1">
          <mxGeometry x="1060" y="340" width="60" height="30" as="geometry" />
        </mxCell>
        <mxCell id="zJhYoEzk1xNZSyCgb80o-9" value="&amp;lt;artist&amp;gt;" style="text;html=1;align=center;verticalAlign=middle;whiteSpace=wrap;rounded=0;" vertex="1" parent="zJhYoEzk1xNZSyCgb80o-1">
          <mxGeometry x="1060" y="360" width="60" height="30" as="geometry" />
        </mxCell>
        <mxCell id="zJhYoEzk1xNZSyCgb80o-10" value="" style="rounded=0;whiteSpace=wrap;html=1;" vertex="1" parent="zJhYoEzk1xNZSyCgb80o-1">
          <mxGeometry x="1010" y="400" width="160" height="10" as="geometry" />
        </mxCell>
        <mxCell id="zJhYoEzk1xNZSyCgb80o-11" value="" style="shape=image;html=1;verticalAlign=top;verticalLabelPosition=bottom;labelBackgroundColor=#ffffff;imageAspect=0;aspect=fixed;image=https://cdn2.iconfinder.com/data/icons/css-vol-2/24/play-button-o-128.png" vertex="1" parent="zJhYoEzk1xNZSyCgb80o-1">
          <mxGeometry x="1065" y="420" width="50" height="50" as="geometry" />
        </mxCell>
        <mxCell id="zJhYoEzk1xNZSyCgb80o-12" value="&amp;lt;duration&amp;gt;" style="text;html=1;align=center;verticalAlign=middle;whiteSpace=wrap;rounded=0;" vertex="1" parent="zJhYoEzk1xNZSyCgb80o-1">
          <mxGeometry x="1115" y="410" width="60" height="30" as="geometry" />
        </mxCell>
        <mxCell id="zJhYoEzk1xNZSyCgb80o-13" value="&lt;h1 style=&quot;margin-top: 0px;&quot;&gt;Interface&lt;/h1&gt;" style="text;html=1;whiteSpace=wrap;overflow=hidden;rounded=0;" vertex="1" parent="zJhYoEzk1xNZSyCgb80o-1">
          <mxGeometry x="640" y="70" width="210" height="50" as="geometry" />
        </mxCell>
        <mxCell id="zJhYoEzk1xNZSyCgb80o-14" value="&lt;h1 style=&quot;margin-top: 0px;&quot;&gt;v2: Splitting the Database&lt;/h1&gt;" style="text;html=1;whiteSpace=wrap;overflow=hidden;rounded=0;" vertex="1" parent="zJhYoEzk1xNZSyCgb80o-1">
          <mxGeometry x="640" y="560" width="340" height="40" as="geometry" />
        </mxCell>
        <mxCell id="zJhYoEzk1xNZSyCgb80o-15" value="" style="verticalLabelPosition=bottom;verticalAlign=top;html=1;shadow=0;dashed=0;strokeWidth=1;shape=mxgraph.android.phone2;strokeColor=#c0c0c0;" vertex="1" parent="zJhYoEzk1xNZSyCgb80o-1">
          <mxGeometry x="560" y="820" width="50" height="100" as="geometry" />
        </mxCell>
        <mxCell id="zJhYoEzk1xNZSyCgb80o-16" value="" style="shape=image;html=1;verticalAlign=top;verticalLabelPosition=bottom;labelBackgroundColor=#ffffff;imageAspect=0;aspect=fixed;image=https://cdn4.iconfinder.com/data/icons/social-media-and-logos-11/32/Logo_Spotify-128.png" vertex="1" parent="zJhYoEzk1xNZSyCgb80o-1">
          <mxGeometry x="566" y="851" width="38" height="38" as="geometry" />
        </mxCell>
        <mxCell id="zJhYoEzk1xNZSyCgb80o-17" style="edgeStyle=orthogonalEdgeStyle;rounded=0;orthogonalLoop=1;jettySize=auto;html=1;" edge="1" parent="zJhYoEzk1xNZSyCgb80o-1" source="zJhYoEzk1xNZSyCgb80o-18">
          <mxGeometry relative="1" as="geometry">
            <mxPoint x="810" y="870" as="targetPoint" />
          </mxGeometry>
        </mxCell>
        <mxCell id="zJhYoEzk1xNZSyCgb80o-18" value="" style="rounded=0;whiteSpace=wrap;html=1;" vertex="1" parent="zJhYoEzk1xNZSyCgb80o-1">
          <mxGeometry x="685" y="665" width="35" height="410" as="geometry" />
        </mxCell>
        <mxCell id="zJhYoEzk1xNZSyCgb80o-19" value="Load Balancer" style="text;html=1;align=center;verticalAlign=middle;whiteSpace=wrap;rounded=0;" vertex="1" parent="zJhYoEzk1xNZSyCgb80o-1">
          <mxGeometry x="673" y="1090" width="60" height="30" as="geometry" />
        </mxCell>
        <mxCell id="zJhYoEzk1xNZSyCgb80o-20" style="edgeStyle=orthogonalEdgeStyle;rounded=0;orthogonalLoop=1;jettySize=auto;html=1;entryX=0;entryY=0.5;entryDx=0;entryDy=0;" edge="1" parent="zJhYoEzk1xNZSyCgb80o-1" source="zJhYoEzk1xNZSyCgb80o-16" target="zJhYoEzk1xNZSyCgb80o-18">
          <mxGeometry relative="1" as="geometry" />
        </mxCell>
        <mxCell id="zJhYoEzk1xNZSyCgb80o-21" value="" style="rounded=1;whiteSpace=wrap;html=1;" vertex="1" parent="zJhYoEzk1xNZSyCgb80o-1">
          <mxGeometry x="800" y="810" width="70" height="40" as="geometry" />
        </mxCell>
        <mxCell id="zJhYoEzk1xNZSyCgb80o-22" value="" style="rounded=1;whiteSpace=wrap;html=1;" vertex="1" parent="zJhYoEzk1xNZSyCgb80o-1">
          <mxGeometry x="810" y="820" width="70" height="40" as="geometry" />
        </mxCell>
        <mxCell id="zJhYoEzk1xNZSyCgb80o-23" value="" style="rounded=1;whiteSpace=wrap;html=1;" vertex="1" parent="zJhYoEzk1xNZSyCgb80o-1">
          <mxGeometry x="820" y="830" width="70" height="40" as="geometry" />
        </mxCell>
        <mxCell id="zJhYoEzk1xNZSyCgb80o-24" value="" style="rounded=1;whiteSpace=wrap;html=1;" vertex="1" parent="zJhYoEzk1xNZSyCgb80o-1">
          <mxGeometry x="830" y="840" width="70" height="40" as="geometry" />
        </mxCell>
        <mxCell id="zJhYoEzk1xNZSyCgb80o-25" value="" style="rounded=1;whiteSpace=wrap;html=1;" vertex="1" parent="zJhYoEzk1xNZSyCgb80o-1">
          <mxGeometry x="840" y="850" width="70" height="40" as="geometry" />
        </mxCell>
        <mxCell id="zJhYoEzk1xNZSyCgb80o-26" value="" style="rounded=1;whiteSpace=wrap;html=1;" vertex="1" parent="zJhYoEzk1xNZSyCgb80o-1">
          <mxGeometry x="850" y="860" width="70" height="40" as="geometry" />
        </mxCell>
        <mxCell id="zJhYoEzk1xNZSyCgb80o-27" value="" style="rounded=1;whiteSpace=wrap;html=1;" vertex="1" parent="zJhYoEzk1xNZSyCgb80o-1">
          <mxGeometry x="860" y="870" width="70" height="40" as="geometry" />
        </mxCell>
        <mxCell id="zJhYoEzk1xNZSyCgb80o-28" value="" style="rounded=1;whiteSpace=wrap;html=1;" vertex="1" parent="zJhYoEzk1xNZSyCgb80o-1">
          <mxGeometry x="870" y="880" width="70" height="40" as="geometry" />
        </mxCell>
        <mxCell id="zJhYoEzk1xNZSyCgb80o-29" value="" style="rounded=1;whiteSpace=wrap;html=1;" vertex="1" parent="zJhYoEzk1xNZSyCgb80o-1">
          <mxGeometry x="880" y="890" width="70" height="40" as="geometry" />
        </mxCell>
        <mxCell id="zJhYoEzk1xNZSyCgb80o-30" value="Web Services" style="text;html=1;align=center;verticalAlign=middle;whiteSpace=wrap;rounded=0;" vertex="1" parent="zJhYoEzk1xNZSyCgb80o-1">
          <mxGeometry x="815" y="750" width="60" height="30" as="geometry" />
        </mxCell>
        <mxCell id="zJhYoEzk1xNZSyCgb80o-31" value="" style="shape=cylinder3;whiteSpace=wrap;html=1;boundedLbl=1;backgroundOutline=1;size=15;" vertex="1" parent="zJhYoEzk1xNZSyCgb80o-1">
          <mxGeometry x="1105" y="700" width="80" height="100" as="geometry" />
        </mxCell>
        <mxCell id="zJhYoEzk1xNZSyCgb80o-32" value="" style="endArrow=classic;html=1;rounded=0;fillColor=#f8cecc;strokeColor=#b85450;" edge="1" parent="zJhYoEzk1xNZSyCgb80o-1">
          <mxGeometry width="50" height="50" relative="1" as="geometry">
            <mxPoint x="950" y="815" as="sourcePoint" />
            <mxPoint x="1040" y="760" as="targetPoint" />
          </mxGeometry>
        </mxCell>
        <mxCell id="zJhYoEzk1xNZSyCgb80o-33" value="" style="endArrow=classic;html=1;rounded=0;fillColor=#f8cecc;strokeColor=#b85450;" edge="1" parent="zJhYoEzk1xNZSyCgb80o-1">
          <mxGeometry width="50" height="50" relative="1" as="geometry">
            <mxPoint x="1050" y="785" as="sourcePoint" />
            <mxPoint x="960" y="845" as="targetPoint" />
          </mxGeometry>
        </mxCell>
        <mxCell id="zJhYoEzk1xNZSyCgb80o-34" value="&lt;b&gt;Relational DB&lt;br&gt;&lt;/b&gt;(such as mySQL or &lt;span style=&quot;background-color: rgb(255, 204, 153);&quot;&gt;AWS RDS&lt;/span&gt;)" style="text;html=1;align=center;verticalAlign=middle;whiteSpace=wrap;rounded=0;" vertex="1" parent="zJhYoEzk1xNZSyCgb80o-1">
          <mxGeometry x="1058.5" y="800" width="172.5" height="60" as="geometry" />
        </mxCell>
        <mxCell id="Rf-umTc8PBU-c_fRN-lE-0" value="" style="shape=cylinder3;whiteSpace=wrap;html=1;boundedLbl=1;backgroundOutline=1;size=15;" vertex="1" parent="zJhYoEzk1xNZSyCgb80o-1">
          <mxGeometry x="1105" y="940" width="80" height="100" as="geometry" />
        </mxCell>
        <mxCell id="Rf-umTc8PBU-c_fRN-lE-1" value="" style="endArrow=classic;html=1;rounded=0;fillColor=#f5f5f5;strokeColor=#666666;" edge="1" parent="zJhYoEzk1xNZSyCgb80o-1">
          <mxGeometry width="50" height="50" relative="1" as="geometry">
            <mxPoint x="980" y="935" as="sourcePoint" />
            <mxPoint x="1060" y="975" as="targetPoint" />
          </mxGeometry>
        </mxCell>
        <mxCell id="Rf-umTc8PBU-c_fRN-lE-2" value="" style="endArrow=classic;html=1;rounded=0;fillColor=#d5e8d4;strokeColor=#82b366;" edge="1" parent="zJhYoEzk1xNZSyCgb80o-1">
          <mxGeometry width="50" height="50" relative="1" as="geometry">
            <mxPoint x="1060" y="1010.5" as="sourcePoint" />
            <mxPoint x="970" y="965" as="targetPoint" />
          </mxGeometry>
        </mxCell>
        <mxCell id="Rf-umTc8PBU-c_fRN-lE-3" value="&lt;b&gt;Storage&lt;/b&gt;&lt;br&gt;(&lt;span style=&quot;background-color: rgb(255, 204, 153);&quot;&gt;AWS S3&lt;/span&gt;)" style="text;html=1;align=center;verticalAlign=middle;whiteSpace=wrap;rounded=0;" vertex="1" parent="zJhYoEzk1xNZSyCgb80o-1">
          <mxGeometry x="1032.5" y="1050" width="225" height="40" as="geometry" />
        </mxCell>
        <mxCell id="Rf-umTc8PBU-c_fRN-lE-4" value="&lt;h1 style=&quot;margin-top: 0px; font-size: 20px;&quot;&gt;&lt;font color=&quot;#cc0000&quot; style=&quot;font-size: 20px;&quot;&gt;Still coupled!&lt;/font&gt;&lt;/h1&gt;&lt;ul style=&quot;list-style-type: &amp;quot;—&amp;nbsp;&amp;nbsp;&amp;quot;;&quot; class=&quot;ul1&quot;&gt;&lt;li style=&quot;margin: 0px; font-variant-numeric: normal; font-variant-east-asian: normal; font-variant-alternates: normal; font-kerning: auto; font-optical-sizing: auto; font-feature-settings: normal; font-variation-settings: normal; font-variant-position: normal; font-stretch: normal; line-height: normal; font-family: &amp;quot;Helvetica Neue&amp;quot;;&quot; class=&quot;li1&quot;&gt;&lt;font style=&quot;font-size: 14px;&quot;&gt;Users&lt;/font&gt;&lt;span style=&quot;font-size: 20px;&quot; class=&quot;Apple-converted-space&quot;&gt;&amp;nbsp;&lt;/span&gt;&lt;/li&gt;&lt;li style=&quot;font-size: 13px; margin: 0px; font-variant-numeric: normal; font-variant-east-asian: normal; font-variant-alternates: normal; font-kerning: auto; font-optical-sizing: auto; font-feature-settings: normal; font-variation-settings: normal; font-variant-position: normal; font-stretch: normal; line-height: normal; font-family: &amp;quot;Helvetica Neue&amp;quot;;&quot; class=&quot;li1&quot;&gt;&lt;span style=&quot;background-color: rgb(255, 255, 0);&quot;&gt;&lt;span style=&quot;font-variant-numeric: normal; font-variant-east-asian: normal; font-variant-alternates: normal; font-kerning: auto; font-optical-sizing: auto; font-feature-settings: normal; font-variation-settings: normal; font-variant-position: normal; font-stretch: normal; font-size: 12px; line-height: normal;&quot; class=&quot;s1&quot;&gt;&lt;/span&gt;Songs (it&#39;ll probably need some kind of cache system as a way to keep the most streamed songs)&lt;/span&gt;&lt;/li&gt;&lt;/ul&gt;" style="text;html=1;whiteSpace=wrap;overflow=hidden;rounded=0;" vertex="1" parent="zJhYoEzk1xNZSyCgb80o-1">
          <mxGeometry x="1260" y="700" width="350" height="130" as="geometry" />
        </mxCell>
        <mxCell id="Rf-umTc8PBU-c_fRN-lE-5" value="" style="shape=curlyBracket;whiteSpace=wrap;html=1;rounded=1;labelPosition=left;verticalLabelPosition=middle;align=right;verticalAlign=middle;" vertex="1" parent="zJhYoEzk1xNZSyCgb80o-1">
          <mxGeometry x="1231" y="690" width="20" height="120" as="geometry" />
        </mxCell>
        <mxCell id="Rf-umTc8PBU-c_fRN-lE-8" value="" style="shape=curlyBracket;whiteSpace=wrap;html=1;rounded=1;labelPosition=left;verticalLabelPosition=middle;align=right;verticalAlign=middle;" vertex="1" parent="zJhYoEzk1xNZSyCgb80o-1">
          <mxGeometry x="1231" y="950" width="20" height="120" as="geometry" />
        </mxCell>
        <mxCell id="Rf-umTc8PBU-c_fRN-lE-9" value="&lt;h1 style=&quot;margin-top: 0px;&quot;&gt;&lt;font color=&quot;#009900&quot;&gt;Necessary Improvement&lt;/font&gt;&lt;/h1&gt;&lt;p&gt;Use a dedicated storage such as S3 to store and retrieve the MP3 songs&#39;s audio files for streaming.&lt;/p&gt;&lt;p&gt;We still need some kind of cache.&lt;br&gt;&lt;br&gt;&lt;/p&gt;" style="text;html=1;whiteSpace=wrap;overflow=hidden;rounded=0;" vertex="1" parent="zJhYoEzk1xNZSyCgb80o-1">
          <mxGeometry x="1257.5" y="950" width="290" height="120" as="geometry" />
        </mxCell>
      </root>
    </mxGraphModel>
  </diagram>
  <diagram name="v3" id="5U2O0u4MvYlvQPIxVyab">
    <mxGraphModel dx="1536" dy="589" grid="1" gridSize="10" guides="1" tooltips="1" connect="1" arrows="1" fold="1" page="1" pageScale="1" pageWidth="827" pageHeight="1169" math="0" shadow="0">
      <root>
        <mxCell id="sh795cP3hcj6W048qwk9-0" />
        <mxCell id="sh795cP3hcj6W048qwk9-1" parent="sh795cP3hcj6W048qwk9-0" />
        <mxCell id="sh795cP3hcj6W048qwk9-2" value="&lt;h1 style=&quot;margin-top: 0px;&quot;&gt;Spotify Design System Requirements&lt;/h1&gt;&lt;p&gt;Spotify is a large app. It can include:&lt;br&gt;&lt;/p&gt;&lt;ul style=&quot;list-style-type: &amp;quot;—&amp;nbsp;&amp;nbsp;&amp;quot;; font-size: medium;&quot; class=&quot;ul1&quot;&gt;&lt;li style=&quot;margin: 0px; font-variant-numeric: normal; font-variant-east-asian: normal; font-variant-alternates: normal; font-kerning: auto; font-optical-sizing: auto; font-feature-settings: normal; font-variation-settings: normal; font-variant-position: normal; font-stretch: normal; font-size: 13px; line-height: normal; font-family: &amp;quot;Helvetica Neue&amp;quot;;&quot; class=&quot;li1&quot;&gt;&lt;span style=&quot;font-variant-numeric: normal; font-variant-east-asian: normal; font-variant-alternates: normal; font-kerning: auto; font-optical-sizing: auto; font-feature-settings: normal; font-variation-settings: normal; font-variant-position: normal; font-stretch: normal; font-size: 12px; line-height: normal;&quot; class=&quot;s1&quot;&gt;&lt;/span&gt;Songs&lt;span class=&quot;Apple-converted-space&quot;&gt;&amp;nbsp;&lt;/span&gt;&lt;/li&gt;&lt;li style=&quot;margin: 0px; font-variant-numeric: normal; font-variant-east-asian: normal; font-variant-alternates: normal; font-kerning: auto; font-optical-sizing: auto; font-feature-settings: normal; font-variation-settings: normal; font-variant-position: normal; font-stretch: normal; font-size: 13px; line-height: normal; font-family: &amp;quot;Helvetica Neue&amp;quot;;&quot; class=&quot;li1&quot;&gt;&lt;span style=&quot;font-variant-numeric: normal; font-variant-east-asian: normal; font-variant-alternates: normal; font-kerning: auto; font-optical-sizing: auto; font-feature-settings: normal; font-variation-settings: normal; font-variant-position: normal; font-stretch: normal; font-size: 12px; line-height: normal;&quot; class=&quot;s1&quot;&gt;&lt;/span&gt;Playlists&lt;/li&gt;&lt;li style=&quot;margin: 0px; font-variant-numeric: normal; font-variant-east-asian: normal; font-variant-alternates: normal; font-kerning: auto; font-optical-sizing: auto; font-feature-settings: normal; font-variation-settings: normal; font-variant-position: normal; font-stretch: normal; font-size: 13px; line-height: normal; font-family: &amp;quot;Helvetica Neue&amp;quot;;&quot; class=&quot;li1&quot;&gt;&lt;span style=&quot;font-variant-numeric: normal; font-variant-east-asian: normal; font-variant-alternates: normal; font-kerning: auto; font-optical-sizing: auto; font-feature-settings: normal; font-variation-settings: normal; font-variant-position: normal; font-stretch: normal; font-size: 12px; line-height: normal;&quot; class=&quot;s1&quot;&gt;&lt;/span&gt;Users&lt;/li&gt;&lt;li style=&quot;margin: 0px; font-variant-numeric: normal; font-variant-east-asian: normal; font-variant-alternates: normal; font-kerning: auto; font-optical-sizing: auto; font-feature-settings: normal; font-variation-settings: normal; font-variant-position: normal; font-stretch: normal; font-size: 13px; line-height: normal; font-family: &amp;quot;Helvetica Neue&amp;quot;;&quot; class=&quot;li1&quot;&gt;&lt;span style=&quot;font-variant-numeric: normal; font-variant-east-asian: normal; font-variant-alternates: normal; font-kerning: auto; font-optical-sizing: auto; font-feature-settings: normal; font-variation-settings: normal; font-variant-position: normal; font-stretch: normal; font-size: 12px; line-height: normal;&quot; class=&quot;s1&quot;&gt;&lt;/span&gt;Artists&lt;/li&gt;&lt;li style=&quot;margin: 0px; font-variant-numeric: normal; font-variant-east-asian: normal; font-variant-alternates: normal; font-kerning: auto; font-optical-sizing: auto; font-feature-settings: normal; font-variation-settings: normal; font-variant-position: normal; font-stretch: normal; font-size: 13px; line-height: normal; font-family: &amp;quot;Helvetica Neue&amp;quot;;&quot; class=&quot;li1&quot;&gt;&lt;span style=&quot;font-variant-numeric: normal; font-variant-east-asian: normal; font-variant-alternates: normal; font-kerning: auto; font-optical-sizing: auto; font-feature-settings: normal; font-variation-settings: normal; font-variant-position: normal; font-stretch: normal; font-size: 12px; line-height: normal;&quot; class=&quot;s1&quot;&gt;&lt;/span&gt;Podcasts&lt;br&gt;&lt;/li&gt;&lt;/ul&gt;&lt;div style=&quot;&quot;&gt;&lt;font style=&quot;font-size: 15px;&quot; face=&quot;Helvetica Neue&quot;&gt;&lt;span style=&quot;font-size: 13px;&quot;&gt;What should we focus in?&lt;br&gt;&lt;br&gt;&lt;/span&gt;&lt;/font&gt;&lt;p style=&quot;font-size: 15px; margin: 0px; font-variant-numeric: normal; font-variant-east-asian: normal; font-variant-alternates: normal; font-kerning: auto; font-optical-sizing: auto; font-feature-settings: normal; font-variation-settings: normal; font-variant-position: normal; font-stretch: normal; line-height: normal; font-family: &amp;quot;Helvetica Neue&amp;quot;;&quot; class=&quot;p1&quot;&gt;&lt;b&gt;Use Cases&lt;/b&gt;&lt;/p&gt;&lt;ul style=&quot;font-size: 15px; list-style-type: &amp;quot;—&amp;nbsp;&amp;nbsp;&amp;quot;;&quot; class=&quot;ul1&quot;&gt;&lt;li style=&quot;margin: 0px; font-variant-numeric: normal; font-variant-east-asian: normal; font-variant-alternates: normal; font-kerning: auto; font-optical-sizing: auto; font-feature-settings: normal; font-variation-settings: normal; font-variant-position: normal; font-stretch: normal; line-height: normal; font-family: &amp;quot;Helvetica Neue&amp;quot;;&quot; class=&quot;li1&quot;&gt;&lt;span style=&quot;font-variant-numeric: normal; font-variant-east-asian: normal; font-variant-alternates: normal; font-kerning: auto; font-optical-sizing: auto; font-feature-settings: normal; font-variation-settings: normal; font-variant-position: normal; font-stretch: normal; line-height: normal;&quot; class=&quot;s1&quot;&gt;&lt;/span&gt;Finding music&lt;/li&gt;&lt;li style=&quot;margin: 0px; font-variant-numeric: normal; font-variant-east-asian: normal; font-variant-alternates: normal; font-kerning: auto; font-optical-sizing: auto; font-feature-settings: normal; font-variation-settings: normal; font-variant-position: normal; font-stretch: normal; line-height: normal; font-family: &amp;quot;Helvetica Neue&amp;quot;;&quot; class=&quot;li1&quot;&gt;Playing music&lt;/li&gt;&lt;/ul&gt;&lt;div style=&quot;font-size: 13px;&quot;&gt;&lt;font style=&quot;&quot; face=&quot;Helvetica Neue&quot;&gt;&lt;b style=&quot;&quot;&gt;&lt;font style=&quot;font-size: 16px;&quot;&gt;Questions&lt;/font&gt;&lt;/b&gt;&lt;span style=&quot;font-size: 15px;&quot;&gt;:&lt;/span&gt;&lt;/font&gt;&lt;/div&gt;&lt;ul style=&quot;font-size: medium; list-style-type: &amp;quot;—&amp;nbsp;&amp;nbsp;&amp;quot;;&quot; class=&quot;ul1&quot;&gt;&lt;li style=&quot;margin: 0px; font-variant-numeric: normal; font-variant-east-asian: normal; font-variant-alternates: normal; font-kerning: auto; font-optical-sizing: auto; font-feature-settings: normal; font-variation-settings: normal; font-variant-position: normal; font-stretch: normal; font-size: 13px; line-height: normal; font-family: &amp;quot;Helvetica Neue&amp;quot;;&quot; class=&quot;li2&quot;&gt;Finding under which criteria?&lt;/li&gt;&lt;/ul&gt;&lt;p style=&quot;font-size: 13px; margin: 0px; font-variant-numeric: normal; font-variant-east-asian: normal; font-variant-alternates: normal; font-kerning: auto; font-optical-sizing: auto; font-feature-settings: normal; font-variation-settings: normal; font-variant-position: normal; font-stretch: normal; line-height: normal; font-family: &amp;quot;Helvetica Neue&amp;quot;;&quot; class=&quot;p1&quot;&gt;Let&#39;s say your search for &quot;Charly&quot;, you may find these results:&lt;/p&gt;&lt;ul style=&quot;font-size: medium; list-style-type: &amp;quot;—&amp;nbsp;&amp;nbsp;&amp;quot;;&quot; class=&quot;ul1&quot;&gt;&lt;li style=&quot;margin: 0px; font-variant-numeric: normal; font-variant-east-asian: normal; font-variant-alternates: normal; font-kerning: auto; font-optical-sizing: auto; font-feature-settings: normal; font-variation-settings: normal; font-variant-position: normal; font-stretch: normal; font-size: 13px; line-height: normal; font-family: &amp;quot;Helvetica Neue&amp;quot;;&quot; class=&quot;li1&quot;&gt;&lt;span style=&quot;font-variant-numeric: normal; font-variant-east-asian: normal; font-variant-alternates: normal; font-kerning: auto; font-optical-sizing: auto; font-feature-settings: normal; font-variation-settings: normal; font-variant-position: normal; font-stretch: normal; font-size: 12px; line-height: normal;&quot; class=&quot;s1&quot;&gt;&lt;/span&gt;Charly as an artist&lt;/li&gt;&lt;li style=&quot;margin: 0px; font-variant-numeric: normal; font-variant-east-asian: normal; font-variant-alternates: normal; font-kerning: auto; font-optical-sizing: auto; font-feature-settings: normal; font-variation-settings: normal; font-variant-position: normal; font-stretch: normal; font-size: 13px; line-height: normal; font-family: &amp;quot;Helvetica Neue&amp;quot;;&quot; class=&quot;li1&quot;&gt;&lt;span style=&quot;font-variant-numeric: normal; font-variant-east-asian: normal; font-variant-alternates: normal; font-kerning: auto; font-optical-sizing: auto; font-feature-settings: normal; font-variation-settings: normal; font-variant-position: normal; font-stretch: normal; font-size: 12px; line-height: normal;&quot; class=&quot;s1&quot;&gt;&lt;/span&gt;This is Charly Garcia, a playlist&lt;/li&gt;&lt;li style=&quot;margin: 0px; font-variant-numeric: normal; font-variant-east-asian: normal; font-variant-alternates: normal; font-kerning: auto; font-optical-sizing: auto; font-feature-settings: normal; font-variation-settings: normal; font-variant-position: normal; font-stretch: normal; font-size: 13px; line-height: normal; font-family: &amp;quot;Helvetica Neue&amp;quot;;&quot; class=&quot;li1&quot;&gt;&lt;span style=&quot;font-variant-numeric: normal; font-variant-east-asian: normal; font-variant-alternates: normal; font-kerning: auto; font-optical-sizing: auto; font-feature-settings: normal; font-variation-settings: normal; font-variant-position: normal; font-stretch: normal; font-size: 12px; line-height: normal;&quot; class=&quot;s1&quot;&gt;&lt;/span&gt;Charly Ruth another artist&lt;/li&gt;&lt;li style=&quot;margin: 0px; font-variant-numeric: normal; font-variant-east-asian: normal; font-variant-alternates: normal; font-kerning: auto; font-optical-sizing: auto; font-feature-settings: normal; font-variation-settings: normal; font-variant-position: normal; font-stretch: normal; font-size: 13px; line-height: normal; font-family: &amp;quot;Helvetica Neue&amp;quot;;&quot; class=&quot;li1&quot;&gt;&lt;span style=&quot;font-variant-numeric: normal; font-variant-east-asian: normal; font-variant-alternates: normal; font-kerning: auto; font-optical-sizing: auto; font-feature-settings: normal; font-variation-settings: normal; font-variant-position: normal; font-stretch: normal; font-size: 12px; line-height: normal;&quot; class=&quot;s1&quot;&gt;&lt;/span&gt;Influencia song by Charly&lt;/li&gt;&lt;li style=&quot;margin: 0px; font-variant-numeric: normal; font-variant-east-asian: normal; font-variant-alternates: normal; font-kerning: auto; font-optical-sizing: auto; font-feature-settings: normal; font-variation-settings: normal; font-variant-position: normal; font-stretch: normal; font-size: 13px; line-height: normal; font-family: &amp;quot;Helvetica Neue&amp;quot;;&quot; class=&quot;li1&quot;&gt;&lt;span style=&quot;font-variant-numeric: normal; font-variant-east-asian: normal; font-variant-alternates: normal; font-kerning: auto; font-optical-sizing: auto; font-feature-settings: normal; font-variation-settings: normal; font-variant-position: normal; font-stretch: normal; font-size: 12px; line-height: normal;&quot; class=&quot;s1&quot;&gt;&lt;/span&gt;Influencia (cover de Charly Garcia) from another artist&lt;/li&gt;&lt;/ul&gt;&lt;div style=&quot;font-size: 13px;&quot;&gt;&lt;font face=&quot;Helvetica Neue&quot;&gt;&lt;span style=&quot;font-size: 13px;&quot;&gt;Let&#39;s say we&#39;ll just have songs as results. With an id and another information about the song.&lt;/span&gt;&lt;/font&gt;&lt;/div&gt;&lt;div style=&quot;font-size: 13px;&quot;&gt;&lt;font face=&quot;Helvetica Neue&quot;&gt;&lt;span style=&quot;font-size: 13px;&quot;&gt;&lt;br&gt;&lt;/span&gt;&lt;/font&gt;&lt;/div&gt;&lt;div style=&quot;font-size: 13px;&quot;&gt;&lt;p&gt;Then we&#39;re focusing for this design just in:&lt;br&gt;&lt;/p&gt;&lt;ul style=&quot;list-style-type: &amp;quot;—&amp;nbsp;&amp;nbsp;&amp;quot;; font-size: medium;&quot; class=&quot;ul1&quot;&gt;&lt;li style=&quot;margin: 0px; font-variant-numeric: normal; font-variant-east-asian: normal; font-variant-alternates: normal; font-kerning: auto; font-optical-sizing: auto; font-feature-settings: normal; font-variation-settings: normal; font-variant-position: normal; font-stretch: normal; font-size: 13px; line-height: normal; font-family: &amp;quot;Helvetica Neue&amp;quot;;&quot; class=&quot;li1&quot;&gt;&lt;span style=&quot;font-variant-numeric: normal; font-variant-east-asian: normal; font-variant-alternates: normal; font-kerning: auto; font-optical-sizing: auto; font-feature-settings: normal; font-variation-settings: normal; font-variant-position: normal; font-stretch: normal; font-size: 12px; line-height: normal;&quot; class=&quot;s1&quot;&gt;&lt;/span&gt;Users&lt;span class=&quot;Apple-converted-space&quot;&gt;&amp;nbsp;&lt;/span&gt;&lt;/li&gt;&lt;li style=&quot;margin: 0px; font-variant-numeric: normal; font-variant-east-asian: normal; font-variant-alternates: normal; font-kerning: auto; font-optical-sizing: auto; font-feature-settings: normal; font-variation-settings: normal; font-variant-position: normal; font-stretch: normal; font-size: 13px; line-height: normal; font-family: &amp;quot;Helvetica Neue&amp;quot;;&quot; class=&quot;li1&quot;&gt;&lt;span style=&quot;font-variant-numeric: normal; font-variant-east-asian: normal; font-variant-alternates: normal; font-kerning: auto; font-optical-sizing: auto; font-feature-settings: normal; font-variation-settings: normal; font-variant-position: normal; font-stretch: normal; font-size: 12px; line-height: normal;&quot; class=&quot;s1&quot;&gt;&lt;/span&gt;Songs (metadata information)&lt;/li&gt;&lt;li style=&quot;margin: 0px; font-variant-numeric: normal; font-variant-east-asian: normal; font-variant-alternates: normal; font-kerning: auto; font-optical-sizing: auto; font-feature-settings: normal; font-variation-settings: normal; font-variant-position: normal; font-stretch: normal; font-size: 13px; line-height: normal; font-family: &amp;quot;Helvetica Neue&amp;quot;;&quot; class=&quot;li1&quot;&gt;Files (mp3 files to stream)&lt;/li&gt;&lt;/ul&gt;&lt;div&gt;&lt;div&gt;&lt;font face=&quot;Helvetica Neue&quot;&gt;&lt;b&gt;&lt;font style=&quot;font-size: 16px;&quot;&gt;Metrics&lt;/font&gt;&lt;/b&gt;&lt;span style=&quot;font-size: 15px;&quot;&gt;:&lt;/span&gt;&lt;/font&gt;&lt;/div&gt;&lt;/div&gt;&lt;div&gt;Let&#39;s write down some numbers that we&#39;ll be nice to have to take some decisions later on.&lt;/div&gt;&lt;/div&gt;&lt;div style=&quot;font-size: 13px;&quot;&gt;&lt;br&gt;&lt;/div&gt;&lt;div style=&quot;font-size: 13px;&quot;&gt;&lt;p style=&quot;margin: 1rem 0px; white-space-collapse: preserve; word-break: break-word; color: rgb(31, 31, 31); font-family: &amp;quot;Google Sans&amp;quot;, &amp;quot;Helvetica Neue&amp;quot;, sans-serif;&quot; data-sourcepos=&quot;4:1-4:10&quot;&gt;&lt;span style=&quot;font-weight: 700; background-color: rgb(255, 255, 255);&quot;&gt;Users:&lt;/span&gt;&lt;/p&gt;&lt;ul style=&quot;margin: 4px 0px; padding-inline-start: 1.125rem; color: rgb(31, 31, 31); font-family: &amp;quot;Google Sans&amp;quot;, &amp;quot;Helvetica Neue&amp;quot;, sans-serif;&quot; data-sourcepos=&quot;6:1-7:0&quot;&gt;&lt;li style=&quot;margin-bottom: 0px;&quot; data-sourcepos=&quot;6:1-7:0&quot;&gt;&lt;span style=&quot;background-color: rgb(255, 255, 255);&quot;&gt;Expected number of users to reach with this design:&amp;nbsp;&lt;span style=&quot;font-weight: 700;&quot;&gt;1 billion&lt;/span&gt;&lt;/span&gt;&lt;/li&gt;&lt;/ul&gt;&lt;p style=&quot;margin: 1rem 0px; white-space-collapse: preserve; word-break: break-word; color: rgb(31, 31, 31); font-family: &amp;quot;Google Sans&amp;quot;, &amp;quot;Helvetica Neue&amp;quot;, sans-serif;&quot; data-sourcepos=&quot;8:1-8:10&quot;&gt;&lt;span style=&quot;font-weight: 700; background-color: rgb(255, 255, 255);&quot;&gt;Songs:&lt;/span&gt;&lt;/p&gt;&lt;ul style=&quot;margin: 4px 0px; padding-inline-start: 1.125rem; color: rgb(31, 31, 31); font-family: &amp;quot;Google Sans&amp;quot;, &amp;quot;Helvetica Neue&amp;quot;, sans-serif;&quot; data-sourcepos=&quot;10:1-18:0&quot;&gt;&lt;li style=&quot;margin-bottom: 0px;&quot; data-sourcepos=&quot;10:1-10:34&quot;&gt;&lt;span style=&quot;background-color: rgb(255, 255, 255);&quot;&gt;Number of songs:&amp;nbsp;&lt;span style=&quot;font-weight: 700;&quot;&gt;100 million&lt;/span&gt;&lt;/span&gt;&lt;/li&gt;&lt;li style=&quot;margin-bottom: 0px;&quot; data-sourcepos=&quot;11:1-11:19&quot;&gt;&lt;span style=&quot;background-color: rgb(255, 255, 255);&quot;&gt;Audio format: MP3&lt;/span&gt;&lt;/li&gt;&lt;li style=&quot;margin-bottom: 0px;&quot; data-sourcepos=&quot;12:1-12:29&quot;&gt;&lt;span style=&quot;background-color: rgb(255, 255, 255);&quot;&gt;Average size per song: 5 MB&lt;/span&gt;&lt;/li&gt;&lt;li style=&quot;margin-bottom: 0px;&quot; data-sourcepos=&quot;13:1-18:0&quot;&gt;&lt;span style=&quot;background-color: rgb(255, 255, 255);&quot;&gt;Storage:&lt;/span&gt;&lt;ul style=&quot;margin: 4px 0px; padding-inline-start: 1.125rem;&quot; data-sourcepos=&quot;14:5-18:0&quot;&gt;&lt;li style=&quot;margin-bottom: 0px;&quot; data-sourcepos=&quot;14:5-14:23&quot;&gt;&lt;span style=&quot;background-color: rgb(255, 255, 255);&quot;&gt;200 songs in 1 GB&lt;/span&gt;&lt;/li&gt;&lt;li style=&quot;margin-bottom: 0px;&quot; data-sourcepos=&quot;15:5-15:25&quot;&gt;&lt;span style=&quot;background-color: rgb(255, 255, 255);&quot;&gt;1,000 songs in 5 GB&lt;/span&gt;&lt;/li&gt;&lt;li style=&quot;margin-bottom: 0px;&quot; data-sourcepos=&quot;16:5-16:37&quot;&gt;&lt;span style=&quot;background-color: rgb(255, 255, 255);&quot;&gt;100,000,000 songs in 500,000 GB&lt;/span&gt;&lt;/li&gt;&lt;li style=&quot;margin-bottom: 0px;&quot; data-sourcepos=&quot;17:5-18:0&quot;&gt;&lt;span style=&quot;background-color: rgb(255, 255, 255);&quot;&gt;&lt;span style=&quot;font-weight: 700;&quot;&gt;Total audio:&lt;/span&gt;&amp;nbsp;500 TB (0.5 PB)&lt;/span&gt;&lt;/li&gt;&lt;/ul&gt;&lt;/li&gt;&lt;/ul&gt;&lt;ul style=&quot;margin: 4px 0px; padding-inline-start: 1.125rem; color: rgb(31, 31, 31); font-family: &amp;quot;Google Sans&amp;quot;, &amp;quot;Helvetica Neue&amp;quot;, sans-serif;&quot; data-sourcepos=&quot;21:1-30:0&quot;&gt;&lt;li style=&quot;margin-bottom: 0px;&quot; data-sourcepos=&quot;21:1-21:36&quot;&gt;&lt;span style=&quot;background-color: rgb(255, 255, 255);&quot;&gt;To store 100 million songs: 0.5 PB&lt;/span&gt;&lt;/li&gt;&lt;li style=&quot;margin-bottom: 0px;&quot; data-sourcepos=&quot;22:1-23:29&quot;&gt;&lt;span style=&quot;background-color: rgb(255, 255, 255);&quot;&gt;Replicas: 1 leader and 3 followers (3x)&lt;/span&gt;&lt;ul style=&quot;margin: 4px 0px; padding-inline-start: 1.125rem;&quot; data-sourcepos=&quot;23:5-23:29&quot;&gt;&lt;li style=&quot;margin-bottom: 0px;&quot; data-sourcepos=&quot;23:5-23:29&quot;&gt;&lt;span style=&quot;background-color: rgb(255, 255, 255);&quot;&gt;&lt;span style=&quot;font-weight: 700;&quot;&gt;Total storage:&lt;/span&gt;&amp;nbsp;2 PB&lt;/span&gt;&lt;/li&gt;&lt;/ul&gt;&lt;/li&gt;&lt;/ul&gt;&lt;p style=&quot;margin: 1rem 0px; white-space-collapse: preserve; word-break: break-word; color: rgb(31, 31, 31); font-family: &amp;quot;Google Sans&amp;quot;, &amp;quot;Helvetica Neue&amp;quot;, sans-serif;&quot; data-sourcepos=&quot;31:1-31:12&quot;&gt;&lt;span style=&quot;font-weight: 700; background-color: rgb(255, 255, 255);&quot;&gt;Traffic:&lt;/span&gt;&lt;/p&gt;&lt;ul style=&quot;margin: 4px 0px; padding-inline-start: 1.125rem; color: rgb(31, 31, 31); font-family: &amp;quot;Google Sans&amp;quot;, &amp;quot;Helvetica Neue&amp;quot;, sans-serif;&quot; data-sourcepos=&quot;33:1-37:0&quot;&gt;&lt;li style=&quot;margin-bottom: 0px;&quot; data-sourcepos=&quot;33:1-37:0&quot;&gt;&lt;span style=&quot;font-weight: 700; background-color: rgb(255, 255, 255);&quot;&gt;Number of songs streamed per day or second.&amp;nbsp;&lt;/span&gt;Data needed to determine the scale of the web service.&lt;/li&gt;&lt;/ul&gt;&lt;div&gt;&lt;font face=&quot;Google Sans, Helvetica Neue, sans-serif&quot; color=&quot;#1f1f1f&quot;&gt;&lt;br&gt;&lt;/font&gt;&lt;/div&gt;&lt;/div&gt;&lt;div style=&quot;&quot;&gt;&lt;font style=&quot;&quot; face=&quot;Google Sans, Helvetica Neue, sans-serif&quot; color=&quot;#1f1f1f&quot;&gt;&lt;b style=&quot;&quot;&gt;&lt;font style=&quot;font-size: 14px;&quot;&gt;Insights&lt;/font&gt;&lt;/b&gt;&lt;span style=&quot;font-size: 13px;&quot;&gt;:&lt;/span&gt;&lt;/font&gt;&lt;/div&gt;&lt;div style=&quot;font-size: 13px;&quot;&gt;&lt;font face=&quot;Google Sans, Helvetica Neue, sans-serif&quot; color=&quot;#1f1f1f&quot;&gt;&lt;br&gt;&lt;/font&gt;&lt;/div&gt;&lt;div style=&quot;&quot;&gt;&lt;font face=&quot;Google Sans, Helvetica Neue, sans-serif&quot; color=&quot;#1f1f1f&quot;&gt;&lt;span style=&quot;font-size: 13px;&quot;&gt;&lt;div style=&quot;&quot;&gt;We can use a relational database, such as MySQL or AWS RDS, to handle the high volume of searches. This will allow us to find songs efficiently.&lt;/div&gt;&lt;div style=&quot;&quot;&gt;Once a song is found, we can retrieve its audio file information from AWS S3, which is ideal for storing and directly accessing large audio files.&lt;/div&gt;&lt;div style=&quot;&quot;&gt;Since these files will not be updated or uploaded through the user interface, AWS S3 is a suitable solution.&lt;/div&gt;&lt;/span&gt;&lt;/font&gt;&lt;/div&gt;&lt;/div&gt;" style="text;html=1;whiteSpace=wrap;overflow=hidden;rounded=0;" vertex="1" parent="sh795cP3hcj6W048qwk9-1">
          <mxGeometry x="50" y="50" width="430" height="1260" as="geometry" />
        </mxCell>
        <mxCell id="sh795cP3hcj6W048qwk9-3" value="" style="verticalLabelPosition=bottom;verticalAlign=top;html=1;shadow=0;dashed=0;strokeWidth=1;shape=mxgraph.android.phone2;strokeColor=#c0c0c0;" vertex="1" parent="sh795cP3hcj6W048qwk9-1">
          <mxGeometry x="720" y="130" width="200" height="390" as="geometry" />
        </mxCell>
        <mxCell id="sh795cP3hcj6W048qwk9-4" value="" style="verticalLabelPosition=bottom;verticalAlign=top;html=1;shadow=0;dashed=0;strokeWidth=1;shape=mxgraph.android.phone2;strokeColor=#c0c0c0;" vertex="1" parent="sh795cP3hcj6W048qwk9-1">
          <mxGeometry x="990" y="130" width="200" height="390" as="geometry" />
        </mxCell>
        <mxCell id="sh795cP3hcj6W048qwk9-5" value="search query" style="rounded=0;whiteSpace=wrap;html=1;" vertex="1" parent="sh795cP3hcj6W048qwk9-1">
          <mxGeometry x="740" y="180" width="160" height="40" as="geometry" />
        </mxCell>
        <mxCell id="sh795cP3hcj6W048qwk9-6" value="results&lt;br&gt;(just songs)" style="rounded=0;whiteSpace=wrap;html=1;" vertex="1" parent="sh795cP3hcj6W048qwk9-1">
          <mxGeometry x="740" y="240" width="160" height="230" as="geometry" />
        </mxCell>
        <mxCell id="sh795cP3hcj6W048qwk9-7" value="&amp;lt;album&amp;gt;" style="whiteSpace=wrap;html=1;aspect=fixed;" vertex="1" parent="sh795cP3hcj6W048qwk9-1">
          <mxGeometry x="1050" y="240" width="80" height="80" as="geometry" />
        </mxCell>
        <mxCell id="sh795cP3hcj6W048qwk9-8" value="&amp;lt;title&amp;gt;" style="text;html=1;align=center;verticalAlign=middle;whiteSpace=wrap;rounded=0;" vertex="1" parent="sh795cP3hcj6W048qwk9-1">
          <mxGeometry x="1060" y="340" width="60" height="30" as="geometry" />
        </mxCell>
        <mxCell id="sh795cP3hcj6W048qwk9-9" value="&amp;lt;artist&amp;gt;" style="text;html=1;align=center;verticalAlign=middle;whiteSpace=wrap;rounded=0;" vertex="1" parent="sh795cP3hcj6W048qwk9-1">
          <mxGeometry x="1060" y="360" width="60" height="30" as="geometry" />
        </mxCell>
        <mxCell id="sh795cP3hcj6W048qwk9-10" value="" style="rounded=0;whiteSpace=wrap;html=1;" vertex="1" parent="sh795cP3hcj6W048qwk9-1">
          <mxGeometry x="1010" y="400" width="160" height="10" as="geometry" />
        </mxCell>
        <mxCell id="sh795cP3hcj6W048qwk9-11" value="" style="shape=image;html=1;verticalAlign=top;verticalLabelPosition=bottom;labelBackgroundColor=#ffffff;imageAspect=0;aspect=fixed;image=https://cdn2.iconfinder.com/data/icons/css-vol-2/24/play-button-o-128.png" vertex="1" parent="sh795cP3hcj6W048qwk9-1">
          <mxGeometry x="1065" y="420" width="50" height="50" as="geometry" />
        </mxCell>
        <mxCell id="sh795cP3hcj6W048qwk9-12" value="&amp;lt;duration&amp;gt;" style="text;html=1;align=center;verticalAlign=middle;whiteSpace=wrap;rounded=0;" vertex="1" parent="sh795cP3hcj6W048qwk9-1">
          <mxGeometry x="1115" y="410" width="60" height="30" as="geometry" />
        </mxCell>
        <mxCell id="sh795cP3hcj6W048qwk9-13" value="&lt;h1 style=&quot;margin-top: 0px;&quot;&gt;Interface&lt;/h1&gt;" style="text;html=1;whiteSpace=wrap;overflow=hidden;rounded=0;" vertex="1" parent="sh795cP3hcj6W048qwk9-1">
          <mxGeometry x="640" y="70" width="210" height="50" as="geometry" />
        </mxCell>
        <mxCell id="sh795cP3hcj6W048qwk9-14" value="&lt;h1 style=&quot;margin-top: 0px;&quot;&gt;v3: Cache for most streamed top songs&lt;/h1&gt;" style="text;html=1;whiteSpace=wrap;overflow=hidden;rounded=0;" vertex="1" parent="sh795cP3hcj6W048qwk9-1">
          <mxGeometry x="640" y="560" width="500" height="40" as="geometry" />
        </mxCell>
        <mxCell id="sh795cP3hcj6W048qwk9-15" value="" style="verticalLabelPosition=bottom;verticalAlign=top;html=1;shadow=0;dashed=0;strokeWidth=1;shape=mxgraph.android.phone2;strokeColor=#c0c0c0;" vertex="1" parent="sh795cP3hcj6W048qwk9-1">
          <mxGeometry x="560" y="820" width="50" height="100" as="geometry" />
        </mxCell>
        <mxCell id="sh795cP3hcj6W048qwk9-16" value="" style="shape=image;html=1;verticalAlign=top;verticalLabelPosition=bottom;labelBackgroundColor=#ffffff;imageAspect=0;aspect=fixed;image=https://cdn4.iconfinder.com/data/icons/social-media-and-logos-11/32/Logo_Spotify-128.png" vertex="1" parent="sh795cP3hcj6W048qwk9-1">
          <mxGeometry x="566" y="851" width="38" height="38" as="geometry" />
        </mxCell>
        <mxCell id="sh795cP3hcj6W048qwk9-17" style="edgeStyle=orthogonalEdgeStyle;rounded=0;orthogonalLoop=1;jettySize=auto;html=1;" edge="1" parent="sh795cP3hcj6W048qwk9-1" source="sh795cP3hcj6W048qwk9-18">
          <mxGeometry relative="1" as="geometry">
            <mxPoint x="810" y="870" as="targetPoint" />
          </mxGeometry>
        </mxCell>
        <mxCell id="sh795cP3hcj6W048qwk9-18" value="" style="rounded=0;whiteSpace=wrap;html=1;" vertex="1" parent="sh795cP3hcj6W048qwk9-1">
          <mxGeometry x="698" y="665" width="35" height="410" as="geometry" />
        </mxCell>
        <mxCell id="sh795cP3hcj6W048qwk9-19" value="Load Balancer" style="text;html=1;align=center;verticalAlign=middle;whiteSpace=wrap;rounded=0;" vertex="1" parent="sh795cP3hcj6W048qwk9-1">
          <mxGeometry x="685.5" y="1090" width="60" height="30" as="geometry" />
        </mxCell>
        <mxCell id="sh795cP3hcj6W048qwk9-20" style="edgeStyle=orthogonalEdgeStyle;rounded=0;orthogonalLoop=1;jettySize=auto;html=1;entryX=0;entryY=0.5;entryDx=0;entryDy=0;" edge="1" parent="sh795cP3hcj6W048qwk9-1" source="sh795cP3hcj6W048qwk9-16" target="sh795cP3hcj6W048qwk9-18">
          <mxGeometry relative="1" as="geometry" />
        </mxCell>
        <mxCell id="sh795cP3hcj6W048qwk9-21" value="" style="rounded=1;whiteSpace=wrap;html=1;" vertex="1" parent="sh795cP3hcj6W048qwk9-1">
          <mxGeometry x="800" y="810" width="70" height="40" as="geometry" />
        </mxCell>
        <mxCell id="sh795cP3hcj6W048qwk9-22" value="" style="rounded=1;whiteSpace=wrap;html=1;" vertex="1" parent="sh795cP3hcj6W048qwk9-1">
          <mxGeometry x="810" y="820" width="70" height="40" as="geometry" />
        </mxCell>
        <mxCell id="sh795cP3hcj6W048qwk9-23" value="" style="rounded=1;whiteSpace=wrap;html=1;" vertex="1" parent="sh795cP3hcj6W048qwk9-1">
          <mxGeometry x="820" y="830" width="70" height="40" as="geometry" />
        </mxCell>
        <mxCell id="sh795cP3hcj6W048qwk9-24" value="" style="rounded=1;whiteSpace=wrap;html=1;" vertex="1" parent="sh795cP3hcj6W048qwk9-1">
          <mxGeometry x="830" y="840" width="70" height="40" as="geometry" />
        </mxCell>
        <mxCell id="sh795cP3hcj6W048qwk9-25" value="" style="rounded=1;whiteSpace=wrap;html=1;" vertex="1" parent="sh795cP3hcj6W048qwk9-1">
          <mxGeometry x="840" y="850" width="70" height="40" as="geometry" />
        </mxCell>
        <mxCell id="sh795cP3hcj6W048qwk9-26" value="" style="rounded=1;whiteSpace=wrap;html=1;" vertex="1" parent="sh795cP3hcj6W048qwk9-1">
          <mxGeometry x="850" y="860" width="70" height="40" as="geometry" />
        </mxCell>
        <mxCell id="sh795cP3hcj6W048qwk9-27" value="" style="rounded=1;whiteSpace=wrap;html=1;" vertex="1" parent="sh795cP3hcj6W048qwk9-1">
          <mxGeometry x="860" y="870" width="70" height="40" as="geometry" />
        </mxCell>
        <mxCell id="sh795cP3hcj6W048qwk9-28" value="" style="rounded=1;whiteSpace=wrap;html=1;" vertex="1" parent="sh795cP3hcj6W048qwk9-1">
          <mxGeometry x="870" y="880" width="70" height="40" as="geometry" />
        </mxCell>
        <mxCell id="sh795cP3hcj6W048qwk9-29" value="" style="rounded=1;whiteSpace=wrap;html=1;" vertex="1" parent="sh795cP3hcj6W048qwk9-1">
          <mxGeometry x="880" y="890" width="70" height="40" as="geometry" />
        </mxCell>
        <mxCell id="sh795cP3hcj6W048qwk9-30" value="Web Services" style="text;html=1;align=center;verticalAlign=middle;whiteSpace=wrap;rounded=0;" vertex="1" parent="sh795cP3hcj6W048qwk9-1">
          <mxGeometry x="815" y="750" width="60" height="30" as="geometry" />
        </mxCell>
        <mxCell id="sh795cP3hcj6W048qwk9-31" value="" style="shape=cylinder3;whiteSpace=wrap;html=1;boundedLbl=1;backgroundOutline=1;size=15;" vertex="1" parent="sh795cP3hcj6W048qwk9-1">
          <mxGeometry x="1105" y="700" width="80" height="100" as="geometry" />
        </mxCell>
        <mxCell id="sh795cP3hcj6W048qwk9-32" value="" style="endArrow=classic;html=1;rounded=0;fillColor=#f8cecc;strokeColor=#b85450;" edge="1" parent="sh795cP3hcj6W048qwk9-1">
          <mxGeometry width="50" height="50" relative="1" as="geometry">
            <mxPoint x="950" y="815" as="sourcePoint" />
            <mxPoint x="1040" y="760" as="targetPoint" />
          </mxGeometry>
        </mxCell>
        <mxCell id="sh795cP3hcj6W048qwk9-33" value="" style="endArrow=classic;html=1;rounded=0;fillColor=#f8cecc;strokeColor=#b85450;" edge="1" parent="sh795cP3hcj6W048qwk9-1">
          <mxGeometry width="50" height="50" relative="1" as="geometry">
            <mxPoint x="1050" y="785" as="sourcePoint" />
            <mxPoint x="960" y="845" as="targetPoint" />
          </mxGeometry>
        </mxCell>
        <mxCell id="sh795cP3hcj6W048qwk9-34" value="&lt;b&gt;Relational DB&lt;br&gt;&lt;/b&gt;(such as mySQL or &lt;span style=&quot;background-color: rgb(255, 204, 153);&quot;&gt;AWS RDS&lt;/span&gt;)" style="text;html=1;align=center;verticalAlign=middle;whiteSpace=wrap;rounded=0;" vertex="1" parent="sh795cP3hcj6W048qwk9-1">
          <mxGeometry x="1058.5" y="800" width="172.5" height="60" as="geometry" />
        </mxCell>
        <mxCell id="sh795cP3hcj6W048qwk9-35" value="" style="shape=cylinder3;whiteSpace=wrap;html=1;boundedLbl=1;backgroundOutline=1;size=15;" vertex="1" parent="sh795cP3hcj6W048qwk9-1">
          <mxGeometry x="1105" y="940" width="80" height="100" as="geometry" />
        </mxCell>
        <mxCell id="sh795cP3hcj6W048qwk9-36" value="" style="endArrow=classic;html=1;rounded=0;fillColor=#f5f5f5;strokeColor=#666666;" edge="1" parent="sh795cP3hcj6W048qwk9-1">
          <mxGeometry width="50" height="50" relative="1" as="geometry">
            <mxPoint x="980" y="935" as="sourcePoint" />
            <mxPoint x="1060" y="975" as="targetPoint" />
          </mxGeometry>
        </mxCell>
        <mxCell id="sh795cP3hcj6W048qwk9-37" value="" style="endArrow=classic;html=1;rounded=0;fillColor=#d5e8d4;strokeColor=#82b366;" edge="1" parent="sh795cP3hcj6W048qwk9-1">
          <mxGeometry width="50" height="50" relative="1" as="geometry">
            <mxPoint x="1060" y="1010.5" as="sourcePoint" />
            <mxPoint x="970" y="965" as="targetPoint" />
          </mxGeometry>
        </mxCell>
        <mxCell id="sh795cP3hcj6W048qwk9-38" value="&lt;b&gt;Storage&lt;/b&gt;&lt;br&gt;(&lt;span style=&quot;background-color: rgb(255, 204, 153);&quot;&gt;AWS S3&lt;/span&gt;)" style="text;html=1;align=center;verticalAlign=middle;whiteSpace=wrap;rounded=0;" vertex="1" parent="sh795cP3hcj6W048qwk9-1">
          <mxGeometry x="1032.5" y="1050" width="225" height="40" as="geometry" />
        </mxCell>
        <mxCell id="sh795cP3hcj6W048qwk9-39" value="&lt;h1 style=&quot;margin-top: 0px; font-size: 20px;&quot;&gt;&lt;font color=&quot;#cc0000&quot; style=&quot;font-size: 20px;&quot;&gt;Still coupled!&lt;/font&gt;&lt;/h1&gt;&lt;ul style=&quot;list-style-type: &amp;quot;—&amp;nbsp;&amp;nbsp;&amp;quot;;&quot; class=&quot;ul1&quot;&gt;&lt;li style=&quot;margin: 0px; font-variant-numeric: normal; font-variant-east-asian: normal; font-variant-alternates: normal; font-kerning: auto; font-optical-sizing: auto; font-feature-settings: normal; font-variation-settings: normal; font-variant-position: normal; font-stretch: normal; line-height: normal; font-family: &amp;quot;Helvetica Neue&amp;quot;;&quot; class=&quot;li1&quot;&gt;&lt;font style=&quot;font-size: 14px;&quot;&gt;Users&lt;/font&gt;&lt;span style=&quot;font-size: 20px;&quot; class=&quot;Apple-converted-space&quot;&gt;&amp;nbsp;&lt;/span&gt;&lt;/li&gt;&lt;li style=&quot;font-size: 13px; margin: 0px; font-variant-numeric: normal; font-variant-east-asian: normal; font-variant-alternates: normal; font-kerning: auto; font-optical-sizing: auto; font-feature-settings: normal; font-variation-settings: normal; font-variant-position: normal; font-stretch: normal; line-height: normal; font-family: &amp;quot;Helvetica Neue&amp;quot;;&quot; class=&quot;li1&quot;&gt;&lt;span style=&quot;background-color: rgb(255, 255, 0);&quot;&gt;&lt;span style=&quot;font-variant-numeric: normal; font-variant-east-asian: normal; font-variant-alternates: normal; font-kerning: auto; font-optical-sizing: auto; font-feature-settings: normal; font-variation-settings: normal; font-variant-position: normal; font-stretch: normal; font-size: 12px; line-height: normal;&quot; class=&quot;s1&quot;&gt;&lt;/span&gt;Songs (it&#39;ll probably need some kind of cache system as a way to keep the most streamed songs)&lt;/span&gt;&lt;/li&gt;&lt;/ul&gt;" style="text;html=1;whiteSpace=wrap;overflow=hidden;rounded=0;" vertex="1" parent="sh795cP3hcj6W048qwk9-1">
          <mxGeometry x="1260" y="700" width="350" height="130" as="geometry" />
        </mxCell>
        <mxCell id="sh795cP3hcj6W048qwk9-40" value="" style="shape=curlyBracket;whiteSpace=wrap;html=1;rounded=1;labelPosition=left;verticalLabelPosition=middle;align=right;verticalAlign=middle;" vertex="1" parent="sh795cP3hcj6W048qwk9-1">
          <mxGeometry x="1231" y="690" width="20" height="120" as="geometry" />
        </mxCell>
        <mxCell id="sh795cP3hcj6W048qwk9-41" value="" style="shape=curlyBracket;whiteSpace=wrap;html=1;rounded=1;labelPosition=left;verticalLabelPosition=middle;align=right;verticalAlign=middle;" vertex="1" parent="sh795cP3hcj6W048qwk9-1">
          <mxGeometry x="1231" y="950" width="20" height="120" as="geometry" />
        </mxCell>
        <mxCell id="sh795cP3hcj6W048qwk9-42" value="&lt;h1 style=&quot;margin-top: 0px;&quot;&gt;&lt;font color=&quot;#009900&quot;&gt;Necessary Improvement&lt;/font&gt;&lt;/h1&gt;&lt;p&gt;Use a dedicated storage such as S3 to store and retrieve the MP3 songs&#39;s audio files for streaming.&lt;br&gt;&lt;/p&gt;&lt;p&gt;&lt;br&gt;&lt;/p&gt;" style="text;html=1;whiteSpace=wrap;overflow=hidden;rounded=0;" vertex="1" parent="sh795cP3hcj6W048qwk9-1">
          <mxGeometry x="1257.5" y="950" width="290" height="120" as="geometry" />
        </mxCell>
        <mxCell id="1No1nrg-8Wcaovuzef6n-0" value="" style="shape=cylinder3;whiteSpace=wrap;html=1;boundedLbl=1;backgroundOutline=1;size=15;" vertex="1" parent="sh795cP3hcj6W048qwk9-1">
          <mxGeometry x="1105" y="1150" width="80" height="70" as="geometry" />
        </mxCell>
        <mxCell id="1No1nrg-8Wcaovuzef6n-1" value="" style="shape=singleArrow;direction=south;whiteSpace=wrap;html=1;" vertex="1" parent="sh795cP3hcj6W048qwk9-1">
          <mxGeometry x="1129.75" y="1100" width="30" height="40" as="geometry" />
        </mxCell>
        <mxCell id="1No1nrg-8Wcaovuzef6n-4" value="&lt;b&gt;CDN Audio Caché&lt;br&gt;&lt;/b&gt;&lt;div&gt;(&lt;span style=&quot;background-color: rgb(255, 204, 153);&quot;&gt;AWS CloudFront&lt;/span&gt;)&lt;/div&gt;" style="text;html=1;align=center;verticalAlign=middle;whiteSpace=wrap;rounded=0;" vertex="1" parent="sh795cP3hcj6W048qwk9-1">
          <mxGeometry x="1088.5" y="1220" width="112.5" height="40" as="geometry" />
        </mxCell>
        <mxCell id="1No1nrg-8Wcaovuzef6n-5" value="" style="shape=curlyBracket;whiteSpace=wrap;html=1;rounded=1;labelPosition=left;verticalLabelPosition=middle;align=right;verticalAlign=middle;" vertex="1" parent="sh795cP3hcj6W048qwk9-1">
          <mxGeometry x="1231" y="1125" width="20" height="120" as="geometry" />
        </mxCell>
        <mxCell id="1No1nrg-8Wcaovuzef6n-6" value="&lt;h1 style=&quot;margin-top: 0px;&quot;&gt;&lt;font color=&quot;#009900&quot;&gt;Necessary Improvement&lt;/font&gt;&lt;/h1&gt;&lt;p&gt;Most streamed top songs, top artists new releases, local artists songs (geolocation based cache) etc.&lt;/p&gt;" style="text;html=1;whiteSpace=wrap;overflow=hidden;rounded=0;" vertex="1" parent="sh795cP3hcj6W048qwk9-1">
          <mxGeometry x="1257.5" y="1140" width="282.5" height="100" as="geometry" />
        </mxCell>
        <mxCell id="1No1nrg-8Wcaovuzef6n-8" value="" style="edgeStyle=elbowEdgeStyle;elbow=vertical;endArrow=classic;html=1;curved=0;rounded=0;endSize=8;startSize=8;exitX=0.5;exitY=1;exitDx=0;exitDy=0;" edge="1" parent="sh795cP3hcj6W048qwk9-1" source="sh795cP3hcj6W048qwk9-29">
          <mxGeometry width="50" height="50" relative="1" as="geometry">
            <mxPoint x="900" y="1060" as="sourcePoint" />
            <mxPoint x="1080" y="1180" as="targetPoint" />
            <Array as="points">
              <mxPoint x="990" y="1180" />
            </Array>
          </mxGeometry>
        </mxCell>
        <mxCell id="1No1nrg-8Wcaovuzef6n-9" value="" style="shape=cylinder3;whiteSpace=wrap;html=1;boundedLbl=1;backgroundOutline=1;size=15;" vertex="1" parent="sh795cP3hcj6W048qwk9-1">
          <mxGeometry x="562.63" y="965" width="44.75" height="50" as="geometry" />
        </mxCell>
        <mxCell id="1No1nrg-8Wcaovuzef6n-10" value="&lt;b&gt;App Caché&lt;/b&gt;&lt;div&gt;The most streamed songs by the specific user, without needing to call the server&lt;/div&gt;" style="text;html=1;align=center;verticalAlign=middle;whiteSpace=wrap;rounded=0;" vertex="1" parent="sh795cP3hcj6W048qwk9-1">
          <mxGeometry x="527.5" y="1005" width="112.5" height="120" as="geometry" />
        </mxCell>
        <mxCell id="1No1nrg-8Wcaovuzef6n-11" value="" style="endArrow=classic;html=1;rounded=0;" edge="1" parent="sh795cP3hcj6W048qwk9-1">
          <mxGeometry width="50" height="50" relative="1" as="geometry">
            <mxPoint x="584.63" y="920" as="sourcePoint" />
            <mxPoint x="584.63" y="960" as="targetPoint" />
          </mxGeometry>
        </mxCell>
      </root>
    </mxGraphModel>
  </diagram>
</mxfile>
